<svg xmlns="http://www.w3.org/2000/svg" xmlns:xlink="http://www.w3.org/1999/xlink" viewBox="0 0 894.22 1290.53"><defs><style>.cls-1{fill:none;}.cls-2{clip-path:url(#clip-path);}.cls-3{fill:#231f20;}.cls-4{fill:#ffbba3;}.cls-5{fill:#747cb7;}.cls-6{fill:#fff;}.cls-7{fill:#ffba2c;}.cls-8{fill:#ff7861;}.cls-9{fill:#ff6c78;}.cls-10{clip-path:url(#clip-path-2);}.cls-11{fill:#ffcd4a;}.cls-12{fill:#aba4ac;}.cls-13{fill:#fd8a69;}.cls-14{fill:#5e5e6a;}.cls-15{clip-path:url(#clip-path-3);}.cls-16{fill:#ffcd67;}.cls-17{fill:#ffdda7;}</style><clipPath id="clip-path"><rect class="cls-1" x="0.02" width="491.97" height="711.77"/></clipPath><clipPath id="clip-path-2"><rect class="cls-1" x="91.71" y="802.95" width="426.37" height="487.56"/></clipPath><clipPath id="clip-path-3"><rect class="cls-1" x="549.53" y="365.71" width="344.71" height="448.49"/></clipPath></defs><title>표지이미지자산 1</title><g id="레이어_2" data-name="레이어 2"><g id="레이어_1-2" data-name="레이어 1"><g class="cls-2"><path class="cls-3" d="M353.48,299.32a2.41,2.41,0,0,1-1-.23,2.38,2.38,0,0,1-1.13-3.19l39.8-83.59a2.39,2.39,0,0,1,4.32,2.06L355.64,298A2.42,2.42,0,0,1,353.48,299.32Z"/><path class="cls-4" d="M265.64,570.79s29.72,112.67,34,138.59h-69S180.73,586.71,169,552.75s49.88-7.44,49.88-7.44Z"/><path class="cls-3" d="M232.22,707h64.54c-5.28-28.37-30.31-123.77-33.16-134.6l-45.7-24.93c-14.28-6.13-39.31-13.49-46.07-7.21-2.28,2.12-2.45,6-.5,11.72C182.13,583.46,226.5,692.9,232.22,707Zm67.38,4.78h-69a2.38,2.38,0,0,1-2.21-1.5c-.5-1.22-50-123.12-61.62-156.76-2.61-7.61-2-13.26,1.77-16.78,11.27-10.45,47.25,4.62,51.31,6.37l.21.09,46.7,25.48a2.42,2.42,0,0,1,1.16,1.48c1.21,4.6,29.8,113.09,34,138.82a2.35,2.35,0,0,1-.54,1.92A2.21,2.21,0,0,1,299.6,711.77Z"/><path class="cls-4" d="M171.18,592S155.25,692,152.07,709.38H86.25S77.76,648.27,73.51,609s67.94-43.52,67.94-43.52Z"/><path class="cls-3" d="M88.34,707h61.72c3.57-20.26,16.74-102.72,18.55-114.07l-28-25c-6.54.54-44.1,4.33-58.92,21.86a24.23,24.23,0,0,0-5.8,19C79.64,643.5,86.82,696,88.34,707Zm63.73,4.78H86.25a2.4,2.4,0,0,1-2.37-2c-.08-.61-8.55-61.6-12.76-100.47A28.84,28.84,0,0,1,78,586.71c17.52-20.7,61.4-23.5,63.26-23.62a2.42,2.42,0,0,1,1.74.61l29.72,26.54a2.39,2.39,0,0,1,.77,2.15c-.16,1-16,100.16-19.13,117.42A2.33,2.33,0,0,1,152.07,711.77Z"/><path class="cls-3" d="M24.7,390.08S13.55,443.41,12,463.31l8.76-4s11.14-62.89,12.73-67.66S24.7,390.08,24.7,390.08Z"/><path class="cls-3" d="M26.74,392c-1.66,8-9.73,47.68-12,67.42l3.83-1.75c1.8-10.16,10.56-59.24,12.45-66.25A17.89,17.89,0,0,0,26.74,392ZM12,465.7a2.37,2.37,0,0,1-2.37-2.58c1.59-19.82,12.32-71.36,12.78-73.54a2.43,2.43,0,0,1,1.64-1.8c3.06-.94,8.55-2.16,10.94.27a4.05,4.05,0,0,1,.78,4.35c-1.13,3.38-8.18,42.11-12.66,67.33a2.35,2.35,0,0,1-1.37,1.75l-8.75,4A2,2,0,0,1,12,465.7Z"/><path class="cls-4" d="M364.62,207.78C360.7,216.9,342.9,264,330,291.17c-5.06-14.87-12-28.82-18.55-43.34,14.44-21.7,33.23-52.79,33.23-52.79"/><path class="cls-3" d="M330,293.56h-.13a2.38,2.38,0,0,1-2.12-1.61c-3.94-11.59-8.94-22.43-14.23-33.91-1.4-3.06-2.82-6.11-4.22-9.2a2.41,2.41,0,0,1,.19-2.31c14.24-21.4,33-52.4,33.17-52.7a2.39,2.39,0,0,1,4.09,2.47c-.19.3-18.36,30.34-32.54,51.77q1.81,4,3.66,8c4.31,9.35,8.75,19,12.45,28.85,8.88-19.52,19.52-46.41,26.09-63,2.76-7,4.92-12.43,6-15a2.39,2.39,0,1,1,4.39,1.88c-1.07,2.48-3.22,7.94-6,14.85-7.22,18.25-19.3,48.8-28.66,68.62A2.55,2.55,0,0,1,330,293.56Z"/><path class="cls-5" d="M211.77,166.38s14.33,3.18,25.48,22.29,54.93,76.42,58.11,79.61c1.15,1.14,7.95-8.14,16.13-20.45C318.05,262.34,325,276.3,330,291.17a154.38,154.38,0,0,1-7.61,14.52c-11.94,19.11-25.48,23.09-43.78,12.74s-61.3-69.26-61.3-69.26l-8.76-6.37L202.22,172Z"/><path class="cls-3" d="M210.87,241.51l7.88,5.73a2,2,0,0,1,.52.53c.43.59,42.9,58.61,60.55,68.59,17.17,9.7,29.3,6.13,40.59-11.93a137.11,137.11,0,0,0,7-13.4c-3.88-11.24-8.77-21.83-13.93-33q-1.21-2.64-2.44-5.3c-12,17.71-13.75,17.88-15.19,18a2.77,2.77,0,0,1-2.23-.78c-3.47-3.47-47.22-60.78-58.49-80.08-8.92-15.27-20-19.89-23.1-20.91l-7.36,4.29Zm85.75,84.88c-5.87,0-12.23-2-19.15-5.89-18.06-10.21-58.1-64.53-61.83-69.63l-8.45-6.14a2.38,2.38,0,0,1-1-1.72l-6.37-70.85a2.4,2.4,0,0,1,1.18-2.28l9.55-5.57a2.41,2.41,0,0,1,1.72-.27c.62.14,15.48,3.65,27,23.42,10.35,17.74,49,68.59,56.58,77.79,1.58-1.65,5.26-6.21,13.6-18.74a2.38,2.38,0,0,1,2.18-1,2.42,2.42,0,0,1,2,1.4q2.08,4.62,4.21,9.17c5.11,11.08,10.39,22.55,14.42,34.38a2.34,2.34,0,0,1-.1,1.78A156.37,156.37,0,0,1,324.47,307C316.32,320,307.24,326.39,296.62,326.39Z"/><path class="cls-5" d="M176.75,156.83s29.45,7.16,35,9.55l5.58,56.52s26.27,17.51,27.06,43-21.49,47.76-21.49,47.76-7.16,64.49-1.59,86S266.7,566,273.07,591.48c0,0-165.58,23.09-198.22,23.89,0,0-39-123.4,5.57-219.72,0,0,11.15-63.69,11.15-77.22S73.26,182.3,74.85,178.32c0,0,29.45-16.72,52.54-20.7S176.75,156.83,176.75,156.83Z"/><path class="cls-3" d="M77.13,179.79c.11,6.65,4.68,40.87,8.37,68.68,4.35,32.56,8.46,63.3,8.46,70,0,13.58-10.74,75-11.18,77.63a2,2,0,0,1-.19.59c-40.86,88.27-10.41,201-6,216.26,33.48-1.41,172.52-20.54,193.49-23.43-4.62-18-18.87-70.41-31.52-116.93-9.27-34.06-17.26-63.46-19.57-72.33-5.62-21.67,1.24-84.19,1.53-86.84a2.35,2.35,0,0,1,.68-1.41c.23-.23,21.56-21.9,20.8-46s-25.75-40.9-26-41.08a2.36,2.36,0,0,1-1.05-1.75l-5.43-55.06c-6.07-2.11-23.85-6.62-33.22-8.9-2.05-.24-26.9-2.93-48.52.8C107.86,163.42,82.65,176.76,77.13,179.79Zm-2.28,438a2.4,2.4,0,0,1-2.28-1.67c-.39-1.24-38.7-125.14,5.56-221.15.83-4.81,11.05-63.8,11.05-76.5,0-6.34-4.27-38.36-8.41-69.32-7.56-56.76-9-69.5-8.15-71.68a2.49,2.49,0,0,1,1-1.2c1.21-.68,30.09-17,53.32-21s49-.94,50.05-.82l.27.05c1.21.3,29.71,7.25,35.41,9.68a2.4,2.4,0,0,1,1.44,2l5.46,55.42c4.89,3.52,26.44,20.34,27.18,44.25.74,24.14-17.92,45-21.59,48.91-.8,7.5-6.64,64.77-1.56,84.3,2.29,8.84,10.28,38.23,19.55,72.27,13.34,49,28.45,104.59,32.21,119.6a2.38,2.38,0,0,1-.34,1.91,2.41,2.41,0,0,1-1.65,1c-6.79.95-166.11,23.12-198.51,23.91Z"/><path class="cls-6" d="M355.91,180.92S396.08,170,400,170s28.93,16.89,28.93,16.89l-4.71,35.73a31.28,31.28,0,0,1-6-6c-.81-.35-2.45-1.08-4.19-1.88a37.06,37.06,0,0,1,3.65,3.94c2.08,2.89-2.57,8.78-2.57,8.78-3.26-3.31-15.82-11.54-15.82-11.54s-11,4.27-15.88,3c-3.88-1-15.22-5.94-19.59-7.88,0,0-19-11-17-16.57S355.91,180.92,355.91,180.92Z"/><path class="cls-6" d="M390.06,183.78,381.13,201l8.34,9s19.68,5.38,20.1,4.2,6.4-13.62,6.4-13.62l-5.54-17.26S396.93,180.41,390.06,183.78Z"/><path class="cls-3" d="M390.78,207.81c6.66,1.8,14.27,3.64,17.2,4,1.28-2.83,4.06-8.63,5.44-11.51l-4.81-15c-4.11-.7-12.18-1.53-16.81.29l-7.75,14.92Zm18.29,8.9c-2.64,0-8.15-1.17-20.22-4.48a2.26,2.26,0,0,1-1.11-.68l-8.34-9a2.38,2.38,0,0,1-.37-2.72L388,182.67a2.37,2.37,0,0,1,1.06-1c7.52-3.69,21.34-.83,21.93-.71a2.39,2.39,0,0,1,1.78,1.6l5.54,17.26a2.36,2.36,0,0,1-.13,1.77c-2.83,5.86-6,12.55-6.3,13.37C411.49,215.93,411.22,216.71,409.07,216.71Z"/><path class="cls-4" d="M393.84,189.45s10.86,8.09,14,9.17c0,0-.35,12.61.7,13.41s10.22,4.8,10.22,4.8L424,204.11,419.61,186l-17.68-8.66-9.24,3.88"/><path class="cls-3" d="M418.75,219.22a2.28,2.28,0,0,1-.95-.2c-3.52-1.55-9.6-4.26-10.72-5.1-.9-.7-1.92-1.48-1.67-13.8-4.09-2.17-11.38-7.57-13-8.76a2.39,2.39,0,0,1,2.85-3.84c4.08,3,11.31,8.12,13.35,8.82a2.38,2.38,0,0,1,1.6,2.33,93.13,93.13,0,0,0,.26,11.72c1.19.62,4.07,1.94,7,3.24l4-9.72-3.9-16.32-15.7-7.69-8.23,3.45a2.38,2.38,0,1,1-1.85-4.39l9.24-3.89a2.34,2.34,0,0,1,2,.07l17.69,8.66a2.4,2.4,0,0,1,1.27,1.59l4.35,18.17a2.43,2.43,0,0,1-.11,1.46L421,217.74a2.4,2.4,0,0,1-1.31,1.31A2.49,2.49,0,0,1,418.75,219.22Z"/><path class="cls-4" d="M364.16,210.82l8,.9,11-12.75,18-15.4,17.66,12.61s-2.07,15.1-1.43,18.39,6.91,8.08,6.91,8.08L429,186.92S404,170.06,400,170s-44.1,10.87-44.1,10.87-8.55,10.94-11.19,14.12l-9.41,14.86"/><path class="cls-3" d="M424.25,225a2.37,2.37,0,0,1-1.45-.49c-1.16-.89-7-5.52-7.82-9.5-.59-3.06.67-13.46,1.23-17.74l-15-10.68-16.43,14-10.87,12.61a2.39,2.39,0,0,1-2.09.82l-8-.91a2.4,2.4,0,0,1-2.1-2.64,2.37,2.37,0,0,1,2.64-2.11l6.72.77,10.18-11.8a2,2,0,0,1,.25-.25l18-15.4a2.39,2.39,0,0,1,2.94-.13l17.66,12.61a2.41,2.41,0,0,1,1,2.26c-.85,6.12-1.85,15.62-1.47,17.61.18.89,1.37,2.36,2.79,3.78l3.93-29.83c-11.14-7.46-24.07-15.36-26.45-15.66-2.37,0-23.59,5.43-42.63,10.59-1.85,2.35-8.27,10.54-10.65,13.43l-9.32,14.73a2.39,2.39,0,1,1-4-2.55l9.41-14.85a1.24,1.24,0,0,1,.19-.26c2.59-3.12,11.06-14,11.14-14.05a2.27,2.27,0,0,1,1.26-.83c6.77-1.83,40.7-11,44.76-11s22.56,12.1,30.25,17.29a2.42,2.42,0,0,1,1,2.3L426.62,223a2.42,2.42,0,0,1-1.45,1.9A2.31,2.31,0,0,1,424.25,225Z"/><path class="cls-4" d="M362.09,210.29s16.49,7.44,21.35,8.66,15.87-3,15.87-3,12.57,8.23,15.83,11.54c0,0,4.65-5.89,2.56-8.78s-12.53-12.18-12.53-12.18l-14-2.6-7.67-10.95"/><path class="cls-3" d="M415.14,229.84a2.35,2.35,0,0,1-1.7-.71c-2.31-2.34-10.43-7.9-14.43-10.56-3.18,1.15-11.54,3.85-16.14,2.71-5-1.26-21.08-8.49-21.77-8.81a2.38,2.38,0,1,1,2-4.34c4.54,2,17.15,7.56,20.95,8.51,3,.75,10.43-1.41,14.43-3a2.39,2.39,0,0,1,2.16.23c.45.28,9.25,6.06,14,10,.94-1.69,1.45-3.32,1.09-3.81-1.35-1.89-7.54-7.66-11.68-11.35l-13.39-2.47a2.41,2.41,0,0,1-1.53-1l-7.67-10.95a2.39,2.39,0,1,1,3.91-2.74l7.12,10.16,13.09,2.42a2.26,2.26,0,0,1,1.14.55c1.1,1,10.72,9.54,12.9,12.58,3,4.16-1.66,10.44-2.63,11.65a2.4,2.4,0,0,1-1.73.91Z"/><polygon class="cls-6" points="309.15 299.05 483.24 295.87 489.61 524.09 299.6 526.21 309.15 299.05"/><path class="cls-3" d="M311.44,301.41,302.1,523.78l185-2.06L480.91,298.3ZM299.6,528.59a2.35,2.35,0,0,1-1.72-.73,2.39,2.39,0,0,1-.67-1.77l9.55-227.15a2.4,2.4,0,0,1,2.34-2.29l174.07-3.19h.05a2.4,2.4,0,0,1,2.39,2.33L492,524a2.43,2.43,0,0,1-.67,1.72,2.36,2.36,0,0,1-1.69.73l-190,2.15Z"/><path class="cls-3" d="M440.25,323.21a6,6,0,1,1-3-5.17A6,6,0,0,1,440.25,323.21Z"/><path class="cls-3" d="M365.82,324a6,6,0,1,1-3-5.17A6,6,0,0,1,365.82,324Z"/><path class="cls-3" d="M359.84,326.39a2.56,2.56,0,0,1-.81-.14,2.37,2.37,0,0,1-1.41-3.06L397.09,215.1a2.38,2.38,0,1,1,4.47,1.64L362.09,324.83A2.41,2.41,0,0,1,359.84,326.39ZM433.07,324a2.38,2.38,0,0,1-2.36-2L415.33,219a2.39,2.39,0,1,1,4.73-.72l15.38,103a2.4,2.4,0,0,1-2,2.72Z"/><path class="cls-7" d="M445.93,402.42a52.26,52.26,0,1,1-26.13-45.26A52.26,52.26,0,0,1,445.93,402.42Z"/><path class="cls-3" d="M393.68,351a51.46,51.46,0,1,0,51.46,51.46A51.52,51.52,0,0,0,393.68,351Zm0,104.51a53.06,53.06,0,1,1,53.05-53.05A53.12,53.12,0,0,1,393.68,455.47Z"/><polygon class="cls-8" points="415.28 405.97 429.64 415.92 414.19 420.88 415.28 405.97"/><path d="M417.35,410.31l-.54,7.21,7.48-2.4Zm-3.17,13a2.39,2.39,0,0,1-1.48-.51,2.35,2.35,0,0,1-.9-2.05l1.1-14.92a2.33,2.33,0,0,1,1.35-2,2.36,2.36,0,0,1,2.39.19L431,414a2.39,2.39,0,0,1-.62,4.23l-15.46,5A2.37,2.37,0,0,1,414.18,423.27Z"/><path class="cls-8" d="M400.16,394.5a5,5,0,1,0,9.93,0V379a5,5,0,0,0-9.93,0Z"/><path d="M405.13,376.46a2.59,2.59,0,0,0-2.58,2.58V394.5a2.58,2.58,0,1,0,5.15,0V379A2.57,2.57,0,0,0,405.13,376.46Zm0,25.41a7.36,7.36,0,0,1-7.36-7.35V379.06a7.36,7.36,0,1,1,14.71,0v15.46A7.36,7.36,0,0,1,405.13,401.87Z"/><path class="cls-8" d="M390.76,394.5a5,5,0,1,0,9.94,0V379a5,5,0,0,0-9.94,0Z"/><path d="M395.73,376.46a2.59,2.59,0,0,0-2.58,2.58V394.5a2.58,2.58,0,1,0,5.16,0V379A2.56,2.56,0,0,0,395.73,376.46Zm0,25.41a7.35,7.35,0,0,1-7.35-7.35V379.06a7.36,7.36,0,1,1,14.71,0v15.46A7.36,7.36,0,0,1,395.73,401.87Z"/><path class="cls-8" d="M380.81,394.5a5,5,0,0,0,9.94,0V379a5,5,0,0,0-9.94,0Z"/><path d="M385.8,376.46a2.59,2.59,0,0,0-2.58,2.58V394.5a2.58,2.58,0,0,0,5.16,0V379A2.59,2.59,0,0,0,385.8,376.46Zm0,25.41a7.36,7.36,0,0,1-7.36-7.35V379.06a7.36,7.36,0,1,1,14.71,0v15.46A7.36,7.36,0,0,1,385.8,401.87Z"/><path class="cls-6" d="M373.84,446.71c0,11.94,9.68,7.28,21.62,7.28s21.62,4.66,21.62-7.28V410.6a21.62,21.62,0,0,0-43.24,0Z"/><path d="M395.46,451.6c3,0,5.78.27,8.26.51,4.37.43,8.12.79,9.67-.61.86-.78,1.29-2.39,1.29-4.79V410.6a19.24,19.24,0,0,0-38.47,0v36.11c0,2.4.43,4,1.29,4.79,1.55,1.4,5.32,1,9.68.61C389.68,451.87,392.52,451.6,395.46,451.6Zm13.77,5.66c-1.84,0-3.85-.19-6-.39-2.5-.24-5.08-.5-7.8-.5s-5.3.26-7.8.5c-5.49.54-10.24,1-13.34-1.83-1.93-1.76-2.87-4.48-2.87-8.33V410.6a24,24,0,1,1,48,0v36.11c0,3.85-.94,6.57-2.87,8.33S412.16,457.26,409.23,457.26Z"/><path class="cls-6" d="M383.79,415a12.44,12.44,0,1,0,12.44-12.44A12.44,12.44,0,0,0,383.79,415Z"/><path d="M396.23,404.92a10,10,0,1,0,10,10A10,10,0,0,0,396.23,404.92Zm0,24.85A14.83,14.83,0,1,1,411.05,415,14.84,14.84,0,0,1,396.23,429.77Z"/><circle cx="396.23" cy="414.95" r="5.11"/><path class="cls-6" d="M344.15,402.42a49.52,49.52,0,1,0,49.51-49.52A49.57,49.57,0,0,0,344.15,402.42Zm-8.19,0a57.72,57.72,0,1,1,57.72,57.71A57.78,57.78,0,0,1,336,402.42Z"/><path class="cls-3" d="M393.68,355.29a47.13,47.13,0,1,0,47.13,47.13A47.18,47.18,0,0,0,393.68,355.29Zm0,99a51.91,51.91,0,1,1,51.9-51.9A52,52,0,0,1,393.68,454.32Zm0-107.23A55.33,55.33,0,1,0,449,402.42,55.39,55.39,0,0,0,393.68,347.09Zm0,115.43a60.11,60.11,0,1,1,60.1-60.1A60.17,60.17,0,0,1,393.68,462.52Z"/><path d="M459.18,481.62a19.66,19.66,0,0,1,1.48,3.08,11.61,11.61,0,0,1,.64,3.87v1.7c0,.7,0,1.54-.05,2.48V503.9a25.89,25.89,0,0,0,.05,2.59,1.38,1.38,0,0,1-.75,1.25,3.41,3.41,0,0,1-1.48.33,3.12,3.12,0,0,1-1.55-.37,1.15,1.15,0,0,1-.59-1.16c0-.11,0-1,0-2.59V493c0-.92,0-1.68,0-2.3v-1.47a8.89,8.89,0,0,0-.43-2.94,6,6,0,0,0-1.14-2.07,4.81,4.81,0,0,0-1.59-1.23,4.36,4.36,0,0,0-1.84-.4,4.22,4.22,0,0,0-1.78.4,4.82,4.82,0,0,0-1.56,1.15,5.44,5.44,0,0,0-1.11,1.91,7.53,7.53,0,0,0-.43,2.66v17.76a1.41,1.41,0,0,1-.75,1.15,2.89,2.89,0,0,1-1.48.4,2.65,2.65,0,0,1-1.47-.32,1.12,1.12,0,0,1-.6-1.16,7.36,7.36,0,0,1-.05-1.24V484.55c0-1.24,0-2.29,0-3.15s0-1.38,0-1.56a1.21,1.21,0,0,1,.77-1,5.08,5.08,0,0,1,1.62-.44,4.16,4.16,0,0,1,1.59.19c.47.16.69.4.69.72a5.87,5.87,0,0,1,2.86-1.39,8.27,8.27,0,0,1,3.46.11,10.62,10.62,0,0,1,3.18,1.39A6.31,6.31,0,0,1,459.18,481.62Zm-33.47,7.76h7.64c0-1,0-2.09,0-3.19a18.54,18.54,0,0,0-.29-3,6.67,6.67,0,0,0-1-2.26,2.1,2.1,0,0,0-1.78-.88q-2.55,0-3.55,2.87a9.92,9.92,0,0,0-.8,2.91A29.37,29.37,0,0,0,425.71,489.38Zm.32,4.23c0,.82.05,1.79.13,2.9a12.07,12.07,0,0,0,.67,3.22,6.21,6.21,0,0,0,1.3,2.47,3.09,3.09,0,0,0,2.41,1,2.47,2.47,0,0,0,2.58-1.46,18.4,18.4,0,0,0,1.08-4.32,1.14,1.14,0,0,1,.59-1.08,2.65,2.65,0,0,1,1.32-.35,2.37,2.37,0,0,1,1.3.35,1.27,1.27,0,0,1,.61,1.08c-.11,1.13-.26,2.28-.45,3.43a11.07,11.07,0,0,1-1.08,3.26,6.43,6.43,0,0,1-2.18,2.39,6.74,6.74,0,0,1-3.71.91,6.64,6.64,0,0,1-4.51-1.36,9.76,9.76,0,0,1-2.7-3.74,23.1,23.1,0,0,1-1.31-5.33c-.27-2-.43-4.09-.51-6.29a26.71,26.71,0,0,1,.69-7,13.45,13.45,0,0,1,2-4.53,7.32,7.32,0,0,1,2.81-2.52,7.52,7.52,0,0,1,3.3-.76,6.16,6.16,0,0,1,4.22,1.38,8.36,8.36,0,0,1,2.35,3.62,17.35,17.35,0,0,1,.83,5,38.22,38.22,0,0,1-.24,5.62,2.89,2.89,0,0,1-2.34,2.18H426Zm-24.66-26.19a1.1,1.1,0,0,1,.65-.95,3.63,3.63,0,0,1,1.39-.43,3.12,3.12,0,0,1,1.44.12.86.86,0,0,1,.66.83v19l8.17-12.63a1.31,1.31,0,0,1,1.14-.56,2.49,2.49,0,0,1,1.31.45,2.82,2.82,0,0,1,.95,1.27,2.07,2.07,0,0,1-.11,1.71l-8.49,13,9.4,17.24a1.79,1.79,0,0,1-.27,1.55,2.69,2.69,0,0,1-1.23.89,2.59,2.59,0,0,1-1.51.08,1.4,1.4,0,0,1-1-.93L406,494.22l-.48.95V508.6c0,.28-.23.51-.69.68a3.35,3.35,0,0,1-1.46.21,4.12,4.12,0,0,1-1.42-.35,1,1,0,0,1-.68-.88Zm-8.28,11.83a4.21,4.21,0,0,0-2.15-.6,2.75,2.75,0,0,0-1.56.44,9.77,9.77,0,0,0-1.86,2.74,20.89,20.89,0,0,0-1.17,3.2,28.24,28.24,0,0,0-.63,3.55c-.15,1.24-.27,2.44-.37,3.62a24.28,24.28,0,0,0,0,3.74,20.44,20.44,0,0,0,.56,3.74,8.92,8.92,0,0,0,1,2.9,2.08,2.08,0,0,0,1.64,1.24,3.49,3.49,0,0,0,2-.16,4.61,4.61,0,0,0,1.22-1.11,1.34,1.34,0,0,1,1.39-.45,3,3,0,0,1,1.38.76,3.06,3.06,0,0,1,.77,1.52,1.89,1.89,0,0,1-.4,1.62,6.14,6.14,0,0,1-1.31,1,14.66,14.66,0,0,1-1.46.8,8.05,8.05,0,0,1-1.75.53,8.35,8.35,0,0,1-2.28.11,6,6,0,0,1-3.9-1.91,11,11,0,0,1-2.31-4.14,22.06,22.06,0,0,1-1-5.23,28.73,28.73,0,0,1,.05-5.27c.17-2.26.39-4.2.68-5.82a26.8,26.8,0,0,1,1.07-4.25,14,14,0,0,1,1.46-3.12,12.75,12.75,0,0,1,2-2.35,4.69,4.69,0,0,1,2-1.51,8.67,8.67,0,0,1,2.35-.56,9.06,9.06,0,0,1,2.5.16,12.44,12.44,0,0,1,2.18.69,1.75,1.75,0,0,1,.8,1.43,2.88,2.88,0,0,1-.48,1.59,3.06,3.06,0,0,1-1.08,1.12A1.14,1.14,0,0,1,393.09,479.25Zm-23.17,1.37a.81.81,0,0,1,.61-.76,4.82,4.82,0,0,1,1.51-.29,4.13,4.13,0,0,1,1.47.27c.44.18.66.45.66.8V507.8c0,.29-.22.49-.66.64a4.89,4.89,0,0,1-1.47.2,4.72,4.72,0,0,1-1.51-.2c-.4-.15-.61-.35-.61-.64Zm0-13.31c0-.32.21-.56.61-.72a4.4,4.4,0,0,1,1.51-.23,5.68,5.68,0,0,1,1.47.2.83.83,0,0,1,.66.8v6.21c0,.29-.22.51-.66.67a4.32,4.32,0,0,1-1.47.24,4.16,4.16,0,0,1-1.51-.24c-.4-.16-.61-.38-.61-.67Zm-18,15.11a8.41,8.41,0,0,1,3.11-.67,8.1,8.1,0,0,1,6.44,2.82,6,6,0,0,1,1.33,3.79l.2,18.52a1.41,1.41,0,0,1-.63,1.3,2.65,2.65,0,0,1-1.44.4,2.3,2.3,0,0,1-1.38-.45,1.42,1.42,0,0,1-.64-1.24l-.27-18.36a2.38,2.38,0,0,0-.88-1.56,3.82,3.82,0,0,0-1.71-.87,4.56,4.56,0,0,0-4.14,1v20a1.19,1.19,0,0,1-.72,1.11,3,3,0,0,1-1.47.37,2.93,2.93,0,0,1-1.48-.37,1.2,1.2,0,0,1-.63-1.11V467.22a1.38,1.38,0,0,1,.63-1.2,2.53,2.53,0,0,1,1.48-.44,3,3,0,0,1,1.47.39,1.3,1.3,0,0,1,.72,1.2v15.25Zm-11.67-3.17a4.21,4.21,0,0,0-2.15-.6,2.75,2.75,0,0,0-1.56.44,9.77,9.77,0,0,0-1.86,2.74,20.87,20.87,0,0,0-1.16,3.2,26.54,26.54,0,0,0-.64,3.55c-.14,1.24-.27,2.44-.37,3.62a24.28,24.28,0,0,0,0,3.74,21.34,21.34,0,0,0,.56,3.74,9.16,9.16,0,0,0,1,2.9,2.08,2.08,0,0,0,1.64,1.24,3.48,3.48,0,0,0,2-.16,4.63,4.63,0,0,0,1.23-1.11,1.31,1.31,0,0,1,1.37-.45,3,3,0,0,1,1.38.76,3.13,3.13,0,0,1,.76,1.52A1.85,1.85,0,0,1,342,506a6.4,6.4,0,0,1-1.31,1c-.48.29-1,.56-1.46.8a8.44,8.44,0,0,1-4,.64,6,6,0,0,1-3.9-1.91,10.73,10.73,0,0,1-2.31-4.14,21.57,21.57,0,0,1-1-5.23,28.78,28.78,0,0,1,0-5.27c.18-2.26.4-4.2.69-5.82a26.87,26.87,0,0,1,1.06-4.25,13.55,13.55,0,0,1,1.47-3.12,13,13,0,0,1,1.93-2.35,4.69,4.69,0,0,1,2-1.51,8.49,8.49,0,0,1,2.35-.56,9,9,0,0,1,2.49.16,12.71,12.71,0,0,1,2.18.69,1.77,1.77,0,0,1,.79,1.43,3,3,0,0,1-.47,1.59,3.09,3.09,0,0,1-1.09,1.12A1.06,1.06,0,0,1,340.26,479.25Z"/><path class="cls-4" d="M191.08,121l-8,39.81s17.51,23.08,10.35,30.25S153.66,178.32,133,162.4s-4.77-56.52-4.77-56.52l53.33-.8Z"/><path class="cls-3" d="M129.86,108.23c-2.53,7.3-12.34,39.28,4.55,52.27,26,20,52.77,33.46,57.35,28.87,3.89-3.88-4-18.48-10.55-27.11a2.39,2.39,0,0,1-.45-1.91l7.79-38.9-8.38-14Zm59.07,86.65c-17.42,0-55.57-29.17-57.43-30.59-21.88-16.83-6.23-57.55-5.54-59.29a2.37,2.37,0,0,1,2.18-1.51l53.34-.8a2.43,2.43,0,0,1,2.08,1.17l9.55,15.92a2.3,2.3,0,0,1,.29,1.7l-7.75,38.75c4.14,5.62,17.24,24.76,9.49,32.52A8.42,8.42,0,0,1,188.93,194.88Z"/><path class="cls-4" d="M240,71.65s6.31,14.56,10.8,20.82c0,0-14.4,6.24-20.7,6.24l-11.15-19.1,13.54-9.56Z"/><path class="cls-3" d="M222.09,80.29l9.3,15.94c4.25-.51,11.35-3.09,15.79-4.87a177,177,0,0,1-8.91-17.64L233,72.6Zm8,20.81A2.4,2.4,0,0,1,228,99.92l-11.14-19.1a2.4,2.4,0,0,1,.68-3.16l13.54-9.55a2.4,2.4,0,0,1,1.88-.38l7.51,1.59a2.4,2.4,0,0,1,1.7,1.39c.07.14,6.25,14.41,10.54,20.38a2.38,2.38,0,0,1-1,3.58C250.21,95.32,236.68,101.1,230.08,101.1Z"/><path class="cls-4" d="M162.42,67.67c22.56-3.86,53.08-21.39,69.8-31.85A68.87,68.87,0,1,1,104.3,71.25c0-1.2,0-2.39.1-3.58Z"/><path class="cls-3" d="M106.69,70.05c0,.4,0,.8,0,1.2a66.47,66.47,0,1,0,124.68-32.1C214.43,49.61,184.9,66.25,162.8,70a2.25,2.25,0,0,1-.38,0Zm66.48,72.45a71.32,71.32,0,0,1-71.25-71.25c0-1.24,0-2.49.09-3.71a2.39,2.39,0,0,1,2.39-2.26h57.81c22.23-3.87,52.59-21.37,68.73-31.48a2.52,2.52,0,0,1,1.84-.3,2.34,2.34,0,0,1,1.49,1.1,71.24,71.24,0,0,1-61.1,107.9Z"/><path class="cls-3" d="M104.4,67.67A68.86,68.86,0,0,1,232.22,35.82c-16.72,10.46-47.24,28-69.8,31.85Z"/><path class="cls-3" d="M107,65.28h55.26c21.34-3.71,50.15-20,66.71-30.22A66.48,66.48,0,0,0,107,65.28Zm55.47,4.77h-58a2.42,2.42,0,0,1-1.73-.74,2.38,2.38,0,0,1-.65-1.77,71.26,71.26,0,0,1,132.26-33,2.4,2.4,0,0,1-.78,3.25C217,48.16,185.87,66.07,162.82,70A1.81,1.81,0,0,1,162.42,70.05Z"/><path class="cls-3" d="M176.75,58.11S164,152.05,158.44,172.75c0,0-57.32-10.35-75.63-16.72,0,0,11.15-20.7,13.53-33.43s4.78-56.53,11.15-72.45"/><path class="cls-3" d="M158.44,175.14a3,3,0,0,1-.43,0c-2.34-.43-57.72-10.46-76-16.81a2.3,2.3,0,0,1-1.43-1.38,2.35,2.35,0,0,1,.13-2c.11-.21,11-20.53,13.29-32.75.75-4,1.52-11.28,2.41-19.72,2-18.73,4.42-42,8.87-53.17A2.39,2.39,0,1,1,109.72,51C105.51,61.55,103,85.47,101.17,103c-.89,8.53-1.67,15.92-2.45,20.09-2,10.43-9.4,25.62-12.45,31.61,17.88,5.54,60.31,13.48,70.43,15.36,5.72-24,17.6-111.29,17.71-112.2a2.39,2.39,0,0,1,4.74.65c-.52,3.84-12.81,94.32-18.37,114.94A2.5,2.5,0,0,1,158.44,175.14Z"/><path class="cls-3" d="M236.06,70.85a6,6,0,1,1-3-5.17A6,6,0,0,1,236.06,70.85Z"/><path class="cls-3" d="M227.7,112.25a1.93,1.93,0,0,1-.53-.07c-.33-.08-8.2-1.91-14.23-11.4a2.39,2.39,0,0,1,4-2.56c4.92,7.72,11,9.25,11.25,9.3a2.4,2.4,0,0,1-.52,4.73Z"/><path class="cls-4" d="M177.69,74.66A15.86,15.86,0,1,0,175.43,101"/><path class="cls-3" d="M167.85,105.35a18.39,18.39,0,0,1-5.18-.75,18.25,18.25,0,1,1,10.3-35,18.49,18.49,0,0,1,6.2,3.2,2.39,2.39,0,0,1-3,3.74,13.48,13.48,0,1,0-1.93,22.39,2.39,2.39,0,1,1,2.28,4.2A18.13,18.13,0,0,1,167.85,105.35Z"/><path class="cls-9" d="M107.47,441s-60.5-8.75-81.2-9.55c0,0-12.73,5.57-16.71,24.68S2.39,535,2.39,535,81.2,547.7,90.76,548.49s11.94-43.78,11.94-43.78Z"/><path class="cls-3" d="M4.91,533c12.64,2,77.58,12.45,86.05,13.16.08,0,.34,0,.81-.38,4.84-4.22,7.81-27.48,8.54-41.14l4.6-61.51c-11-1.56-59.56-8.35-78.14-9.18-2.2,1.16-11.61,7-14.89,22.75C8.43,473.31,5.53,522.11,4.91,533ZM91,550.88h-.45c-9.53-.8-85.32-13-88.55-13.55a2.4,2.4,0,0,1-2-2.49c.13-2.45,3.24-60.1,7.2-79.17,4.19-20.08,17.53-26.13,18.1-26.39a2.76,2.76,0,0,1,1.05-.2c20.59.79,79,9.2,81.46,9.57a2.39,2.39,0,0,1,2,2.54l-4.78,63.69c-.21,3.77-2.23,37.51-10.17,44.44A5.73,5.73,0,0,1,91,550.88Z"/><path class="cls-6" d="M107.49,441s12.74,4.78,13.53,14.33-5.57,83.59-5.57,92.35c0,0-17.51,2.39-24.68.79,0,0,1.59-69.25,4.78-88.36S102.71,440.23,107.49,441Z"/><path class="cls-3" d="M93.21,546.46c5.46.57,14.76-.27,19.9-.88.22-5.38,1.1-17.42,2.1-31.05,1.74-23.78,3.89-53.4,3.42-59-.6-7.33-10.27-11.58-11.79-12.22-1.91-.3-2.93-.14-4.06,1.26-1.87,2.34-3.52,7.69-4.89,15.92C95.09,477.39,93.51,534.75,93.21,546.46Zm4.47,5a35.51,35.51,0,0,1-7.43-.6,2.38,2.38,0,0,1-1.87-2.39c.07-2.83,1.64-69.64,4.81-88.7,1.55-9.3,3.41-15,5.86-18.12,2.76-3.43,6-3.42,8.82-2.94a2.06,2.06,0,0,1,.45.13c.57.22,14.17,5.43,15.07,16.36.5,6-1.59,34.54-3.42,59.74-1.14,15.78-2.13,29.42-2.13,32.8a2.4,2.4,0,0,1-2.07,2.37A161.88,161.88,0,0,1,97.68,551.42Z"/><path class="cls-3" d="M104.3,458.54c.4,4.62,8.76-1.59,8.76-1.59-.79-11.94,6.37-208.57,6.37-246s-20.7-45.38-20.7-45.38A58.13,58.13,0,0,1,90,170.36s20.69,8,21.49,40.6C112.17,239.71,102.71,440.23,104.3,458.54Z"/><path class="cls-3" d="M95.15,170.5c6.51,4.38,18.09,15.62,18.69,40.4.34,13.55-1.54,64-3.53,117.38-2.17,58.17-4.4,118.29-3.7,129.48a17.06,17.06,0,0,0,4-2c-.19-10.36,1.34-60.26,3-112.91,1.7-55.68,3.45-113.25,3.45-131.87,0-30.55-14.17-40.47-18.15-42.63C98,168.88,96.66,169.69,95.15,170.5ZM106,462.63a4.21,4.21,0,0,1-1.8-.37,4,4,0,0,1-2.31-3.51h0c-.86-9.88,1.42-71.27,3.63-130.64,2-53.32,3.86-103.7,3.52-117.1-.75-30.51-19.18-38.12-20-38.44a2.34,2.34,0,0,1-1.53-2.21,2.42,2.42,0,0,1,1.49-2.23,56.14,56.14,0,0,0,8.32-4.55,2.35,2.35,0,0,1,2.18-.24c.9.35,22.22,9,22.22,47.6,0,18.68-1.76,76.28-3.47,132-1.7,55.52-3.29,108-2.91,113.82a2.36,2.36,0,0,1-1,2.07C112.42,460.39,108.92,462.63,106,462.63Z"/><path class="cls-4" d="M187.62,428l8.23,16.19-16.71,6.37S116,436.15,76.54,425.39c4.17-11.7,9.82-23,15.12-34.45C121.52,404,170.54,424.16,187.62,428Z"/><path class="cls-3" d="M79.66,423.77c36.79,9.93,92.39,22.73,99.28,24.31l13.57-5.16L186,430.09c-17.8-4.38-64.29-23.44-93.15-36-.77,1.62-1.53,3.26-2.3,4.88C86.74,407,82.81,415.38,79.66,423.77ZM179.14,453a1.93,1.93,0,0,1-.53-.07c-.64-.14-63.65-14.55-102.69-25.2a2.46,2.46,0,0,1-1.5-1.2,2.43,2.43,0,0,1-.13-1.91c3.36-9.42,7.72-18.7,11.94-27.67,1.1-2.32,2.19-4.65,3.27-7a2.38,2.38,0,0,1,3.12-1.18c29.1,12.75,78.56,33.12,95.54,36.94a2.44,2.44,0,0,1,1.61,1.24L198,443.14a2.35,2.35,0,0,1,.1,1.94,2.38,2.38,0,0,1-1.39,1.37L180,452.82A2.64,2.64,0,0,1,179.14,453Z"/><path class="cls-5" d="M105.32,260.06c-1.81,6.47-3.8,12.79-5.79,18.57-8,23.08-35.82,97.91-31.84,101.1,1.22,1,10.71,5.39,24,11.21-5.3,11.44-11,22.75-15.13,34.45-10.46-2.85-19.26-5.45-24.77-7.45-26.27-9.55-30.25-26.27-28.66-37.42s21.49-121,27.07-141.7,11.14-53.33,24.67-60.5c0,0,14.33-4.78,17.52-6.37"/><path class="cls-3" d="M69.71,378.61h0Zm6.81,49.17a2.79,2.79,0,0,1-.63-.08c-11.4-3.11-19.81-5.64-25-7.52-30.82-11.2-31.4-31.7-30.2-40,1.57-11,21.49-121,27.13-142,.94-3.5,1.88-7.35,2.88-11.41,5.06-20.69,10.81-44.14,23-50.59a3.17,3.17,0,0,1,.37-.16c3.94-1.32,14.71-5,17.19-6.24a2.39,2.39,0,1,1,2.13,4.27c-3.12,1.56-15.81,5.83-17.62,6.43C65.62,186.11,60,209.27,55.38,227.9c-1,4.09-1.94,8-2.92,11.53-5.6,20.84-25.44,130.46-27,141.41-1,7.13-.41,24.82,27.12,34.84,4.71,1.72,12.26,4,22.46,6.81,3.25-8.71,7.28-17.27,11.18-25.58.75-1.6,1.49-3.19,2.24-4.78C80,388.42,67.94,383,66.19,381.57,63,379,64.41,370.11,91,295.41c2.55-7.14,4.73-13.27,6.23-17.58,2.07-6,4-12.21,5.76-18.42a2.39,2.39,0,1,1,4.6,1.29c-1.76,6.3-3.74,12.59-5.84,18.69-1.5,4.33-3.68,10.48-6.24,17.63C87,321.1,69.29,370.64,69.66,378.15c2.09,1.18,9.71,4.78,23,10.59a2.39,2.39,0,0,1,1.21,3.18c-1.08,2.34-2.18,4.68-3.28,7-4.17,8.87-8.49,18-11.77,27.24A2.39,2.39,0,0,1,76.52,427.78Z"/><path class="cls-4" d="M179.68,433.22,205,399.12l27.23,2.63,20.06,20.33s-.73,4.31-4.83,3.1l-18.08-14.26-12.12-.08,12,7,22.37,19s-4.08,4-8.94,1.89l4.86,2.12s-2.71,7.5-10.75,3.41c0,0-2.88,3.95-7,2.74l-17.35-9.32s-14.66,15-21.77,15.4-15.79-3.3-15.79-3.3"/><path class="cls-3" d="M189.66,455.5c-7.29,0-15.35-3.36-15.71-3.51a2.38,2.38,0,1,1,1.84-4.39c.08,0,8.28,3.46,14.76,3.11,4.49-.24,14.76-9.13,20.19-14.67a2.36,2.36,0,0,1,2.83-.43l17.1,9.19c2.33.52,4.16-1.88,4.18-1.91a2.37,2.37,0,0,1,3-.72c1.9,1,3.51,1.21,4.76.72A4,4,0,0,0,244,442l-2.31-1a2.41,2.41,0,0,1-1.43-2.2,2.21,2.21,0,0,1,.21-.95,2.39,2.39,0,0,1,3.13-1.24,5.26,5.26,0,0,0,4,0l-19.76-16.8L216,412.94a2.38,2.38,0,0,1,1.21-4.44h0l12.12.08a2.42,2.42,0,0,1,1.46.51L248.47,423a1,1,0,0,0,.7-.06,1.32,1.32,0,0,0,.28-.25L231.07,404.1l-25-2.42-24.5,33a2.39,2.39,0,1,1-3.84-2.85L203,397.75a2.41,2.41,0,0,1,2.15-.95l27.23,2.62a2.29,2.29,0,0,1,1.46.7l20.06,20.33a2.36,2.36,0,0,1,.66,2.07,7,7,0,0,1-2.88,4.49,6,6,0,0,1-5,.51,2.3,2.3,0,0,1-.79-.41l-17.44-13.76h-2.32l4.23,2.47a2.12,2.12,0,0,1,.35.23l22.37,19a2.47,2.47,0,0,1,.85,1.74,2.35,2.35,0,0,1-.72,1.78,13.15,13.15,0,0,1-3.36,2.23,2.11,2.11,0,0,1-.14.89,10.06,10.06,0,0,1-5.37,5.62,9.64,9.64,0,0,1-7-.14,8.61,8.61,0,0,1-8.26,2.16,2.17,2.17,0,0,1-.44-.19l-15.8-8.47c-4,3.9-15.31,14.47-22.08,14.82C190.42,455.48,190,455.5,189.66,455.5Z"/><polyline class="cls-6" points="244.41 440.07 225.83 425.58 218.13 423.38"/><path class="cls-3" d="M244.41,442.46A2.3,2.3,0,0,1,243,442l-18.21-14.19-7.28-2.08a2.39,2.39,0,1,1,1.32-4.6l7.72,2.21a2.22,2.22,0,0,1,.81.41l18.58,14.48a2.38,2.38,0,0,1,.42,3.34A2.41,2.41,0,0,1,244.41,442.46Z"/><line class="cls-6" x1="236.79" y1="444.26" x2="221.04" y2="433.91"/><path class="cls-3" d="M236.79,446.65a2.34,2.34,0,0,1-1.31-.4L219.74,435.9a2.39,2.39,0,0,1,2.62-4l15.75,10.35a2.4,2.4,0,0,1,.68,3.31A2.35,2.35,0,0,1,236.79,446.65Z"/><path class="cls-3" d="M178.75,329.57a2.38,2.38,0,0,1-.7-4.66l20.7-6.37a2.4,2.4,0,0,1,3,1.58,2.36,2.36,0,0,1-1.57,3l-20.7,6.37A2.34,2.34,0,0,1,178.75,329.57Z"/></g><g class="cls-10"><polygon class="cls-6" points="478.2 984.61 426.27 986.7 426.27 1025.86 426.27 1120.67 515.89 1120.67 515.89 1007.26 515.89 988.77 478.2 984.61"/><path class="cls-3" d="M428.46,1118.49h85.23V990.72l-35.58-3.91-49.65,2Zm87.43,4.37h-89.6a2.19,2.19,0,0,1-2.19-2.19v-134a2.18,2.18,0,0,1,2.1-2.19l51.93-2.07a1.77,1.77,0,0,1,.32,0l37.68,4.13a2.2,2.2,0,0,1,2,2.18v131.9A2.22,2.22,0,0,1,515.89,1122.86Z"/><path class="cls-6" d="M426.27,986.7c0,9.72,20.06,17.6,44.8,17.6s44.8-7.88,44.8-17.6-20.07-17.61-44.8-17.61S426.27,977,426.27,986.7Z"/><path class="cls-3" d="M471.07,971.26c-25.11,0-42.61,8.13-42.61,15.42s17.5,15.42,42.61,15.42,42.62-8.13,42.62-15.42S496.2,971.26,471.07,971.26Zm0,35.23c-26.35,0-47-8.7-47-19.79s20.63-19.79,47-19.79,47,8.7,47,19.79S497.42,1006.49,471.07,1006.49Z"/><rect class="cls-11" x="435.92" y="1046.81" width="69.95" height="63.15"/><path class="cls-3" d="M438.11,1107.79h65.58V1049H438.11Zm67.76,4.37H435.92a2.19,2.19,0,0,1-2.19-2.19v-63.14a2.19,2.19,0,0,1,2.19-2.19h69.95a2.19,2.19,0,0,1,2.19,2.19V1110A2.19,2.19,0,0,1,505.87,1112.16Z"/><path class="cls-6" d="M460.2,1099.16a7.77,7.77,0,0,1-15.54,0v-65a7.77,7.77,0,0,1,15.54,0Z"/><path class="cls-3" d="M452.43,1028.6a5.59,5.59,0,0,0-5.58,5.58v65a5.58,5.58,0,0,0,11.16,0v-65A5.58,5.58,0,0,0,452.43,1028.6Zm0,80.51a10,10,0,0,1-9.95-9.95v-65a10,10,0,1,1,19.91,0v65A10,10,0,0,1,452.43,1109.11Z"/><path class="cls-3" d="M327.57,1244.05l14.1,44.29H97.8a277.33,277.33,0,0,1-1.94-44.29c1-23.32,34-56.35,34-56.35l156.42,14.57Z"/><path class="cls-3" d="M341.67,1290.51a2.18,2.18,0,0,1-2.08-1.51l-13.95-43.78-40.34-40.84L130.7,1190c-4.76,4.94-31.81,33.83-32.66,54.17a279.64,279.64,0,0,0,1.93,43.9,2.19,2.19,0,0,1-4.33.6,284,284,0,0,1-2-44.69c1-23.9,33.27-56.42,34.64-57.81a2.14,2.14,0,0,1,1.75-.63l156.42,14.58a2.22,2.22,0,0,1,1.36.64l41.27,41.78a2,2,0,0,1,.52.88l14.11,44.29a2.17,2.17,0,0,1-1.41,2.74A3,3,0,0,1,341.67,1290.51Z"/><path class="cls-4" d="M322,883.37l15.84,27.72S326,920,322,922"/><path class="cls-3" d="M322,924.16a2.18,2.18,0,0,1-1-4.14c2.69-1.35,10-6.59,14-9.53l-14.88-26a2.19,2.19,0,1,1,3.8-2.17L339.79,910a2.16,2.16,0,0,1-.58,2.82c-.5.37-12.08,9-16.18,11.11A2.27,2.27,0,0,1,322,924.16Z"/><path class="cls-4" d="M283.56,839a67.33,67.33,0,1,1-66.77,8.66A67.33,67.33,0,0,1,283.56,839Z"/><path class="cls-3" d="M257.67,836a65.15,65.15,0,1,0,65.14,65.15A65.21,65.21,0,0,0,257.67,836Zm0,134.66a69.52,69.52,0,1,1,69.52-69.51A69.59,69.59,0,0,1,257.67,970.69Z"/><path class="cls-4" d="M287.79,892.9a17.33,17.33,0,1,0,.27,23.17"/><path class="cls-3" d="M275,924.16a19.53,19.53,0,1,1,14.38-32.73,2.19,2.19,0,0,1-3.22,3,15.15,15.15,0,1,0,.23,20.24,2.19,2.19,0,0,1,3.3,2.89A19.62,19.62,0,0,1,275,924.16Z"/><path class="cls-12" d="M257.67,968.51s36.64-66.34,63.37-59.42c0,0,8.92,5,5.94,19.81s-13.86,38.62-13.86,38.62S282.43,974.45,257.67,968.51Z"/><path class="cls-3" d="M261,967c20.87,4.11,45.23-.32,50.55-1.4,2.07-4.65,10.71-24.41,13.26-37.14,2.38-11.89-3.48-16.54-4.66-17.34C300.55,906.56,272.17,947.68,261,967Zm19.64,6.12a101.67,101.67,0,0,1-23.51-2.49,2.18,2.18,0,0,1-1.39-3.18c1.53-2.77,37.77-67.75,65.82-60.47a2.28,2.28,0,0,1,.51.21c.43.23,10.28,5.91,7,22.13-3,14.94-13.57,38.11-14,39.11a2.2,2.2,0,0,1-1.5,1.22A166.14,166.14,0,0,1,280.68,973.13Z"/><path class="cls-13" d="M188.36,935.83s88.12-3,135.65,35.65,15.84,134.66,6.94,191.11c0,0-2.41,70.56-3.4,81.45H95.86s-6.52-144.84,4.39-195.33S128,936.83,188.36,935.83Z"/><path class="cls-3" d="M321.05,943a1.32,1.32,0,0,1-.28,0c-.36,0-9-1.22-15.4-10.86a2.19,2.19,0,1,1,3.64-2.42c5.26,7.9,12,8.91,12.33,9a2.18,2.18,0,0,1-.29,4.35ZM98,1241.87H325.54c1-15.42,3.21-78.69,3.23-79.36a2.6,2.6,0,0,1,0-.26c1.61-10.13,3.94-21.52,6.4-33.59,11.34-55.51,25.46-124.59-12.55-155.47C276.29,935.53,189.32,938,188.46,938h0c-57.45.94-74.53,57.88-86,111.16C92.38,1095.55,97.21,1223.9,98,1241.87Zm229.61,4.37H95.86a2.2,2.2,0,0,1-2.19-2.09c-.26-5.93-6.4-145.69,4.43-195.88,11.85-54.91,29.57-113.6,90.21-114.61,3.91-.13,89.56-2.49,137.1,36.13,40.06,32.54,25.65,103.08,14.06,159.74-2.45,12-4.75,23.26-6.34,33.27-.14,4.41-2.42,70.76-3.39,81.46A2.19,2.19,0,0,1,327.57,1246.24Z"/><path class="cls-3" d="M203.22,855.64s7.93-21.79,29.7-28.71,55.46-21.79,55.46-21.79,11.87,18.81,2,34.65-57.44,31.69-69.31,32.68S198.27,876.43,203.22,855.64Z"/><path class="cls-3" d="M205.31,856.28c-1.58,6.69-1.52,11.07.19,13,2,2.27,7,1.77,12.3,1.26l3-.29c12-1,58.4-16.86,67.64-31.65,7.46-11.94,1.38-26-1.07-30.71-7.33,3.19-35.1,15.11-53.84,21.07C213.89,835.28,205.93,854.67,205.31,856.28Zm6.09,19.1c-3.73,0-7-.68-9.18-3.2-2.79-3.18-3.14-8.6-1.13-17a2.41,2.41,0,0,1,.08-.25c.33-.94,8.55-22.88,31.1-30,21.42-6.82,54.9-21.56,55.23-21.7a2.17,2.17,0,0,1,2.73.83c.51.81,12.49,20.17,2,37s-58.64,32.65-71,33.69l-3,.28C215.87,875.16,213.56,875.38,211.4,875.38Z"/><path class="cls-4" d="M405.3,1055.08c-13.6,9.72-54.9,29.62-54.9,29.62s-25.25,22.11-26.71,30.86,4.37,32.79,4.37,32.79c4.37,17.49,26.23,10.2,26.23,10.2s39.35-21.13,68.5-72.14"/><path class="cls-3" d="M344.47,1162.25a21.83,21.83,0,0,1-10.49-2.39c-4.07-2.23-6.76-5.92-8-11-.25-1-5.92-24.6-4.4-33.68,1.54-9.26,24.79-29.82,27.44-32.14a1.89,1.89,0,0,1,.49-.32c.41-.2,41.28-20,54.58-29.44a2.19,2.19,0,1,1,2.54,3.56c-13.18,9.41-51.05,27.8-54.94,29.7-9.57,8.39-24.82,23.61-25.79,29.37-1.13,6.8,2.76,25.34,4.35,31.91,1,3.85,2.88,6.53,5.87,8.18,6.53,3.58,16,.94,17.37.51,2.84-1.59,40-23.09,67.46-71.21a2.19,2.19,0,0,1,3.81,2.17c-29.12,51-69,72.77-69.36,73a1.83,1.83,0,0,1-.35.14A37.67,37.67,0,0,1,344.47,1162.25Z"/><path class="cls-13" d="M263,1040.5s28.18,73.85,38.87,96.19,34,36,57.32,20.4,8.74-63.15,8.74-63.15-13.59-51.48-19.42-80.63c0,0-4.85-33.52-36.44-50.53"/><path class="cls-3" d="M338.64,1166a34.29,34.29,0,0,1-9.17-1.25c-12.19-3.35-23-13.22-29.61-27.06-10.61-22.17-38.65-95.62-38.93-96.35a2.2,2.2,0,0,1,1.27-2.83,2.18,2.18,0,0,1,2.83,1.27c.28.74,28.26,74,38.79,96,6.08,12.7,15.86,21.71,26.83,24.73,9,2.49,18.48.68,27.32-5.21,21.71-14.47,8-60.23,7.87-60.69s-13.72-52-19.49-80.86c-.07-.44-5.14-32.76-35.33-49a2.18,2.18,0,1,1,2.07-3.84c32.18,17.33,37.36,50.71,37.56,52.13,5.73,28.63,19.25,79.88,19.38,80.4.6,1.92,14.75,49.27-9.65,65.54C353.37,1163.58,346,1166,338.64,1166Z"/><path class="cls-3" d="M256.17,942.86s-24.3,10.68-57.32,97.16-51.5,205-51.5,205H131.81s24.5-131.44,49.55-199.17C207.59,974.91,236.74,939,236.74,939S252.28,940.92,256.17,942.86Z"/><path class="cls-3" d="M134.45,1242.83H145.5c2.52-15.44,20.82-123.78,51.31-203.6,25.53-66.83,46-88.87,54.37-95.63-3.87-.89-9.4-1.76-13.48-2.3-4.69,6.13-30.8,41.83-54.28,105.31C160.64,1108.17,138,1224.07,134.45,1242.83Zm12.9,4.37H131.81a2.14,2.14,0,0,1-1.67-.79,2.11,2.11,0,0,1-.47-1.79c.25-1.31,24.82-132.4,49.65-199.53C205.38,974.64,234.76,938,235.05,937.6a2.18,2.18,0,0,1,2-.79c1.63.2,16,2.06,20.14,4.1a2.19,2.19,0,0,1-.07,4c-.4.18-24.22,12.28-56.18,95.95-32.58,85.25-51.2,203.37-51.38,204.55A2.23,2.23,0,0,1,147.35,1247.2Z"/><path class="cls-3" d="M218.28,1243.08h16.51c-65.09-127.28-59.26-307-59.26-307s-8.74,3.89-14.57,6.81C161,942.86,159,1114.83,218.28,1243.08Z"/><path class="cls-3" d="M219.68,1240.89h11.55c-58-116.34-58.31-275.92-58-301.43-2.74,1.24-6.77,3.11-10.14,4.75C163.13,960.49,164.62,1120.63,219.68,1240.89Zm15.11,4.37H218.28a2.15,2.15,0,0,1-2-1.27c-58.79-127.22-57.56-299.43-57.53-301.16a2.19,2.19,0,0,1,1.21-1.92c5.8-2.9,14.58-6.81,14.66-6.84a2.19,2.19,0,0,1,3.08,2.07c-.06,1.79-5.06,180.66,59,305.94a2.18,2.18,0,0,1-2,3.18Z"/><path class="cls-14" d="M286.29,1264.69H106.54a2.19,2.19,0,1,1,0-4.37H286.28a2.19,2.19,0,0,1,0,4.37Zm30.11,0H298.91a2.19,2.19,0,0,1,0-4.37H316.4a2.19,2.19,0,1,1,0,4.37Z"/><path class="cls-6" d="M211.92,1234.33v22.79a13.16,13.16,0,1,0,26.31,0v-22.79Z"/><path class="cls-3" d="M214.11,1236.52v20.6a11,11,0,1,0,21.93,0v-20.6Zm11,36a15.36,15.36,0,0,1-15.34-15.35v-22.79a2.17,2.17,0,0,1,2.18-2.18h26.31a2.17,2.17,0,0,1,2.18,2.18v22.79A15.35,15.35,0,0,1,225.08,1272.47Z"/><path class="cls-6" d="M127.4,1234.33v22.79a13.15,13.15,0,1,0,26.3,0v-22.79Z"/><path class="cls-3" d="M129.58,1236.52v20.6a11,11,0,1,0,21.94,0v-20.6Zm11,36a15.37,15.37,0,0,1-15.35-15.35v-22.79a2.18,2.18,0,0,1,2.19-2.18h26.3a2.18,2.18,0,0,1,2.19,2.18v22.79A15.36,15.36,0,0,1,140.56,1272.47Z"/><path class="cls-4" d="M400.46,1059.81l9.48-20.77s22.58-6.92,24.41-8.38,9.1-16,9.1-16,6.2,5.1,4.74,11.3a101.82,101.82,0,0,1-2.91,10.2L430,1046.33l6.56,6.56,18.22,1.09,6.56-9.11v-10.2s6.19,2.92,6.56,5.1.36,8.75.36,8.75,4,3.28,2.91,6.56-4.37,12.38-4.37,12.38,3.65,2.92,2.92,5.47-3.65,6.19-3.65,6.19,2.16,6.5,1.1,8c-2.55,3.64-11.3,7.28-11.3,7.28s-23.32,2.56-28.42,2.56-14.21-2.56-14.21-2.56"/><path class="cls-3" d="M427.42,1099.16c-5.33,0-14.41-2.52-14.79-2.64a2.19,2.19,0,0,1,1.18-4.21c.09,0,8.88,2.46,13.63,2.46s25.05-2.2,27.86-2.5c3.12-1.34,8.28-4.08,10-6.25a21,21,0,0,0-1.27-6.23,2.22,2.22,0,0,1,.36-2,20.87,20.87,0,0,0,3.25-5.44c.18-.61-1.08-2.27-2.18-3.16a2.18,2.18,0,0,1-.69-2.45c0-.09,3.28-9.12,4.36-12.34.45-1.37-1.31-3.41-2.23-4.19a2.21,2.21,0,0,1-.8-1.69c0-1.73-.06-6.55-.32-8.29a8.3,8.3,0,0,0-2.23-1.85v6.54a2.3,2.3,0,0,1-.41,1.29l-6.56,9.11a2.12,2.12,0,0,1-1.91.9l-18.21-1.09a2.18,2.18,0,0,1-1.42-.65l-6.56-6.55a2.2,2.2,0,0,1,.34-3.37l14.69-9.79c.45-1.37,1.54-4.74,2.61-9.3.64-2.71-.76-5.31-2.07-7-2.84,5.55-6.66,12.66-8.28,14-1.81,1.44-15.52,5.8-24.19,8.47l-9.07,19.88a2.19,2.19,0,1,1-4-1.83l9.47-20.76a2.12,2.12,0,0,1,1.34-1.18c10.56-3.24,22.33-7.13,23.74-8,1-1,5.17-8.67,8.45-15.26a2.18,2.18,0,0,1,3.34-.71c.29.25,7.23,6.05,5.48,13.48a102.32,102.32,0,0,1-3,10.45,2.24,2.24,0,0,1-.84,1.08l-13.09,8.71,4.08,4.08,16.19,1,5.44-7.56v-9.48a2.19,2.19,0,0,1,3.12-2c2.69,1.27,7.3,3.83,7.78,6.72a74.93,74.93,0,0,1,.39,8.15c1.42,1.41,4,4.62,2.81,8.2-.84,2.54-2.94,8.4-3.89,11.08,1.39,1.43,3.25,4,2.47,6.69a22.63,22.63,0,0,1-3.33,6c1.34,4.38,1.5,7.35.45,8.84-2.82,4-11.29,7.65-12.24,8.06a3,3,0,0,1-.59.16C455.11,1096.7,432.58,1099.16,427.42,1099.16Z"/><path class="cls-3" d="M448.91,1088.23a2.19,2.19,0,0,1-.46-4.33l9.74-2.08,6.54-4.83a2.19,2.19,0,0,1,2.6,3.53l-6.93,5.1a2.14,2.14,0,0,1-.84.38l-10.2,2.19A2.22,2.22,0,0,1,448.91,1088.23Zm1.82-10.56a2.21,2.21,0,0,1-2.15-1.74,2.18,2.18,0,0,1,1.7-2.58l8.2-1.7,6.5-5.48a2.18,2.18,0,1,1,2.81,3.33l-6.92,5.83a2.11,2.11,0,0,1-1,.47l-8.75,1.82A1.88,1.88,0,0,1,450.73,1077.67Zm0-11.66a2.19,2.19,0,0,1-.35-4.35l8.11-1.29,7.5-12.26a2.18,2.18,0,1,1,3.73,2.27l-8,13.12a2.2,2.2,0,0,1-1.51,1l-9.11,1.46A1.42,1.42,0,0,1,450.73,1066Z"/><path class="cls-3" d="M320.31,890.39a5.1,5.1,0,1,1-2.55-4.41A5.09,5.09,0,0,1,320.31,890.39Z"/></g><g class="cls-15"><path class="cls-3" d="M704.05,494.55s.81,41.26.81,52.59c0,0,15.37,8.9,42.07,6.47s55.82-25.89,55.82-25.89l-39.64-51.78S709.72,475.94,704.05,494.55Z"/><path class="cls-4" d="M691.92,625.61S650.66,695.19,618.29,692c0,0-22.65-21.85-17.79-31.56s20.22-36.4,25.89-42.07,51-47.73,51-47.73Z"/><path class="cls-3" d="M619.36,689.61c.41,0,.81,0,1.22,0,28.28,0,64-56.68,68.73-64.4L676,575.13c-10.16,9.45-43.21,40.19-47.94,44.92-5.45,5.45-20.66,31.89-25.44,41.44C600,667,610.59,681,619.36,689.61Zm1.12,4.89q-1.22,0-2.43-.12a2.46,2.46,0,0,1-1.44-.66c-4-3.85-23.67-23.62-18.28-34.38,4.72-9.44,20.34-36.7,26.34-42.71,5.63-5.63,49.17-46.08,51-47.79a2.43,2.43,0,0,1,4,1.16l14.56,55a2.47,2.47,0,0,1-.26,1.86C692.34,629.69,653.5,694.5,620.48,694.5Z"/><path class="cls-9" d="M699.2,538.24s-28.32,25.08-39.64,46.92l41.26,48.55L737.22,603S717,526.91,699.2,538.24Z"/><path class="cls-3" d="M662.47,584.86l38.62,45.43,33.38-28.19c-4.69-17.1-18-57.63-29.79-62.23a4.3,4.3,0,0,0-4,.31C698.47,542.16,673.49,564.82,662.47,584.86Zm38.35,51.27a2.4,2.4,0,0,1-1.85-.86l-41.26-48.54a2.43,2.43,0,0,1-.31-2.68c11.41-22,39-46.59,40.2-47.62a2.37,2.37,0,0,1,.3-.23,9.15,9.15,0,0,1,8.56-.84c16.59,6.47,31.47,60.81,33.11,67a2.43,2.43,0,0,1-.78,2.47l-36.4,30.75A2.46,2.46,0,0,1,700.82,636.13Z"/><path class="cls-9" d="M742.89,515.59S700,531,683.83,553.61L698,576.46s-18.17,39.45-10.08,60.48,28.58,31.25,28.58,31.25,1.36,40.75-3.5,51.27-26.7,70.92-26.7,70.92,28.32,8.9,77.67,17.8,106.79-1.62,106.79-1.62,10.52-81.43,12.14-116.22,3.62-116-7.28-139.16-41.26-38.83-59.06-41.26S742.89,515.59,742.89,515.59Z"/><path class="cls-3" d="M724.28,368.34s-59.87,10.52-59.87,72.82c0,0,2.43,20.22,17.8,24.27s80.09-75.24,80.09-75.24Zm83.89,445.83a257,257,0,0,1-44.69-3.58c-48.93-8.82-77.68-17.78-78-17.88a2.36,2.36,0,0,1-1.44-1.24,2.42,2.42,0,0,1-.12-1.9c.89-2.47,21.94-60.63,26.78-71.11,3.64-7.88,3.64-36.63,3.32-48.79-4.79-2.68-21.22-13-28.45-31.84-7.65-19.88,6.56-54.2,9.6-61.18L689.88,568a2.4,2.4,0,0,1,.79-3.33,2.43,2.43,0,0,1,3.35.79l6,9.73a2.45,2.45,0,0,1,.14,2.29c-.17.39-17.63,38.77-10,58.59s27.18,29.84,27.38,29.94a2.43,2.43,0,0,1,1.34,2.08c.06,1.69,1.33,41.48-3.71,52.38-4.2,9.11-21.63,57-25.74,68.32,7.85,2.29,34.4,9.69,74.95,17,43.57,7.86,94.22.32,104.19-1.33,1.53-12.12,10.42-82.8,11.89-114.25,2.52-54.13,2-118.8-7.06-138-10.51-22.37-40-37.54-57.19-39.88-16.67-2.28-68.64,5-72.7,5.63-3.34,1.23-42.72,16.13-57.69,37.07a2.43,2.43,0,1,1-4-2.82c16.44-23,58.43-38.26,60.21-38.89a2.49,2.49,0,0,1,.47-.12c2.3-.34,56.37-8.1,74.3-5.66,18.32,2.49,49.68,18.7,60.92,42.63,11.85,25.2,8.74,113.75,7.51,140.31-1.6,34.48-12,115.61-12.15,116.43a2.41,2.41,0,0,1-2,2.07A396.73,396.73,0,0,1,808.17,814.17Z"/><path class="cls-3" d="M676.54,415.27s11.33-42.88,63.11-46.93c0,0,70.38-7.28,79.28,62.3,0,0,4.05,58.25-29.93,70.38l-19.42-107.6Z"/><path class="cls-3" d="M769.58,391a2.34,2.34,0,0,1,1.33.4A2.42,2.42,0,0,1,772,393l18.88,104.66c29-13.46,25.7-66.29,25.67-66.84-3.55-27.69-17.43-46.26-41.25-55.08a88.87,88.87,0,0,0-35.37-5c-40.74,3.19-55.47,30.67-59.62,41.15L769,391.06A3.55,3.55,0,0,1,769.58,391ZM789,503.45a2.46,2.46,0,0,1-1.21-.32,2.42,2.42,0,0,1-1.18-1.67l-19-105.08L677.1,417.65a2.48,2.48,0,0,1-2.3-.67,2.44,2.44,0,0,1-.62-2.31c.12-.44,12.38-44.59,65.26-48.72.69-.08,72.81-6.72,81.9,64.38.18,2.59,3.79,60.37-31.52,73A2.15,2.15,0,0,1,789,503.45Z"/><path class="cls-4" d="M729.94,504.26s6.47,32.36,7.28,38c0,0,10.52,11.33,31.55,9.71s33.17-20.22,35.6-25.89c0,0-8.09-32.36-11.33-38.83l-29.93-2.43Z"/><path class="cls-3" d="M739.5,541.12c2.24,2.07,11.82,9.77,29.1,8.45,18.73-1.44,30.14-17.28,33.21-23.71-2.23-8.88-7.66-29.56-10.4-36.29l-27.73-2.25-31,18.15C734,512,738.47,534.71,739.5,541.12Zm25.16,13.46c-19.11,0-28.8-10.18-29.22-10.64a2.51,2.51,0,0,1-.63-1.32c-.79-5.53-7.2-37.57-7.26-37.89a2.4,2.4,0,0,1,1.14-2.57l33.17-19.42a2.31,2.31,0,0,1,1.43-.32l29.93,2.42a2.44,2.44,0,0,1,2,1.33c3.31,6.63,11.18,38,11.5,39.34a2.37,2.37,0,0,1-.13,1.53c-2.81,6.57-15.76,25.67-37.63,27.35C767.48,554.53,766.06,554.58,764.66,554.58Z"/><path class="cls-4" d="M809.29,482.06c8-39.95-13.8-96.6-13.8-96.6s-77-8.7-85.71-4.35c0,0-47.94,20.34-41.39,76.26,0,0,6.54,58.83,76.26,62.46a87.45,87.45,0,0,0,9-.29"/><path class="cls-3" d="M746.19,522.27c-1,0-1.59,0-1.64,0-71-3.7-78.52-64-78.59-64.62-6.66-57.05,42.36-78.56,42.87-78.77,8.77-4.38,73.94,2.7,86.92,4.18a2.41,2.41,0,0,1,2,1.53c.9,2.35,22,57.78,13.91,98a2.42,2.42,0,1,1-4.75-.94c7.08-35.4-10-85-13.19-93.88-29.61-3.3-77.09-7.31-82.86-4.43-2,.87-46.31,20.42-40.07,73.81.26,2.33,7.22,56.85,74,60.33,0,0,3.46.11,8.67-.28a2.43,2.43,0,1,1,.38,4.84C750.43,522.22,747.77,522.27,746.19,522.27Z"/><path class="cls-3" d="M715.26,497.06a21,21,0,0,1-7.08-1.15,2.43,2.43,0,0,1,1.71-4.55,16.94,16.94,0,0,0,17.88-4.8,2.43,2.43,0,0,1,3.56,3.3A21.41,21.41,0,0,1,715.26,497.06Zm-5.54-13a2.27,2.27,0,0,1-.91-.18A92.19,92.19,0,0,1,696.33,478a2.44,2.44,0,0,1-.87-3.25c3.79-6.83,6.18-20.92,6.2-21.07a2.43,2.43,0,0,1,4.79.81c-.1.55-2.12,12.57-5.65,20.44,1.91,1,5.19,2.57,9.82,4.42a2.43,2.43,0,0,1,1.36,3.15A2.47,2.47,0,0,1,709.72,484.05Z"/><path class="cls-3" d="M738.26,457.34a6.69,6.69,0,1,1-6.7-6.69A6.69,6.69,0,0,1,738.26,457.34Zm-46.54-3.22a6.69,6.69,0,1,1-6.7-6.69A6.68,6.68,0,0,1,691.72,454.12Zm46.75,47.71a2.5,2.5,0,0,1-1.46-.48,26.14,26.14,0,0,1-10.4-24.19,2.43,2.43,0,0,1,4.79.79,21.28,21.28,0,0,0,8.52,19.51,2.43,2.43,0,0,1,.49,3.4A2.38,2.38,0,0,1,738.47,501.83Z"/><path class="cls-3" d="M778.48,469.47s7.28,80.1,8.9,85.76,45.31-2.43,62.3-23.46c0,0-20.23-52.59-25.89-88.19s-20.23-64.72-60.68-63.91l-8.09,17s2.43,55.82,18.61,67.15Z"/><path class="cls-3" d="M756.65,397c.26,5,3.26,55.24,17.9,65.5a1.93,1.93,0,0,1,.31.27l4.85,5.67a1.53,1.53,0,0,1,.39.9c2,22.24,7.56,80.94,8.85,85.47.15.11,1.54.69,5.24.57,11.75-.39,40.18-8,53.66-23.89-2.67-7.08-20.42-54.8-25.65-87.62-6.78-42.63-25.05-62.57-57.44-62.57h-.61Zm36.61,161.61a19.1,19.1,0,0,1-3.76-.31c-2-.42-3.28-1.29-3.67-2.62-1.59-5.56-8.22-78-8.9-85.54L772.54,465c-16.48-11.91-19-66-19.12-68.28a1.53,1.53,0,0,1,.16-.76l8.09-17a1.6,1.6,0,0,1,1.42-.92c.57,0,1.12,0,1.67,0,45,0,56.16,37.17,60.65,65.29,5.56,35,25.59,87.33,25.8,87.86a1.6,1.6,0,0,1-.25,1.6C837.2,549.81,806.77,558.61,793.26,558.61Z"/><path class="cls-3" d="M700,387l38,24.27s36.41-3.23,35.6-5.66-3.24-23.46-3.24-23.46-26.7-10.52-35.6-9.71S708.1,378.05,700,387Z"/><path class="cls-3" d="M702.56,386.68l35.88,22.89c14.27-1.28,29.78-3.25,33.39-4.58-.87-4.32-2.46-17.68-2.93-21.73-4.69-1.79-26.44-9.93-34-9.25C726,374.82,710.59,379.25,702.56,386.68ZM738,412.84a1.51,1.51,0,0,1-.87-.26l-38-24.27a1.65,1.65,0,0,1-.73-1.15,1.6,1.6,0,0,1,.41-1.29c8.09-8.9,25.82-14.18,35.84-15.08,9.17-.83,35.24,9.38,36.34,9.82a1.68,1.68,0,0,1,1,1.33c.94,8.07,2.62,21.48,3.17,23.13a1.9,1.9,0,0,1-.23,1.65c-1.32,2-13.68,4.1-36.76,6.14A.47.47,0,0,0,738,412.84Z"/><path class="cls-3" d="M670.07,432.26s8.09-19.42,40.45-17,50.16,1.62,60.68-16.18c0,0-20.22-18.61-27.51-19.42s-37.21,2.43-37.21,2.43S678.16,395.85,670.07,432.26Z"/><path class="cls-3" d="M726.7,411s-22.65,3.24-34.78,16.18A242.53,242.53,0,0,1,721,423.91c16.18-.81,32.36-2.43,38.83-14.56s-17.79-13.76-17.79-13.76Z"/><path class="cls-4" d="M628,584.35s-28.35,57.27-31.53,72,.27,32.39,15.09,36.39,33-3.54,38-29.77c0,0,4.16-53.74,2.46-69"/><path class="cls-3" d="M619.14,696.24a31.59,31.59,0,0,1-8.19-1.1c-16.42-4.43-20.24-23.44-16.83-39.25,3.22-14.9,30.57-70.26,31.73-72.6a2.43,2.43,0,0,1,4.35,2.15c-.27.56-28.25,57.16-31.34,71.47-2.94,13.62,0,29.93,13.35,33.54a25.19,25.19,0,0,0,20.16-2.88c7.45-4.68,12.56-13.27,14.77-24.87.23-3,4.07-53.91,2.45-68.44a2.44,2.44,0,0,1,4.84-.55c1.71,15.35-2.29,67.28-2.45,69.48a1.07,1.07,0,0,1,0,.25c-3.11,16.46-11,24.44-17,28.22A29.42,29.42,0,0,1,619.14,696.24Z"/><path class="cls-16" d="M697.61,498.24s-35.42,20.53-47.54,37.67l-.06,6.52,7.91,1.88s35.7-28.66,49-36.67l1.08-8Z"/><path class="cls-3" d="M652.47,540.54l4.87,1.16c5.66-4.53,34.53-27.49,47.36-35.48l.6-4.47-7.19-1c-5,3-34.53,20.87-45.61,36Zm5.45,6.21a2.83,2.83,0,0,1-.57-.06l-7.91-1.88a2.42,2.42,0,0,1-1.86-2.38l.07-6.52a2.53,2.53,0,0,1,.43-1.38c12.27-17.37,46.83-37.52,48.3-38.38a2.38,2.38,0,0,1,1.54-.3l10.42,1.4a2.46,2.46,0,0,1,1.6.94,2.39,2.39,0,0,1,.47,1.8l-1.08,8a2.48,2.48,0,0,1-1.15,1.77c-13,7.83-48.4,36.18-48.75,36.47A2.51,2.51,0,0,1,657.92,546.75Z"/><path class="cls-4" d="M626.66,585.28V530.63s21.1-26.84,23.49-28.76,32.59,11,32.59,11-4.08,7.56-7.67,6.83-21.92-6.11-21.92-6.11l-11.86,15.82s25.53,2.15,26.6,3.24,3.23,7.55,1.79,11.5c0,0,3.24,7.56.36,12.22,0,0,3.24,9.35.71,12.94l-4,8.63-10.43.35s-.36,11.51-9,15.1"/><path class="cls-3" d="M647.39,595.86a2.45,2.45,0,0,1-2.25-1.49,2.41,2.41,0,0,1,1.31-3.17c7.1-3,7.49-12.83,7.49-12.93a2.42,2.42,0,0,1,2.35-2.35l8.93-.3,3.33-7.27c.07-.13.13-.26.21-.39,1.18-1.68.16-7.33-1-10.76a2.48,2.48,0,0,1,.23-2.07c1.81-2.94.19-8.33-.52-10a2.43,2.43,0,0,1-.05-1.78c.94-2.57-.3-7.15-1.08-8.67-2.83-.66-14.64-1.93-25.24-2.82a2.42,2.42,0,0,1-2-1.42,2.39,2.39,0,0,1,.28-2.44l11.86-15.83a2.43,2.43,0,0,1,2.62-.87c6.31,1.86,19,5.5,21.71,6.07.63.11,2.17-1.33,3.63-3.34-11.72-4.92-24.68-9.72-27.87-9.91-2.42,2.5-12.88,15.48-22.23,27.37v53.82a2.43,2.43,0,1,1-4.85,0V530.67a2.5,2.5,0,0,1,.51-1.51c3.56-4.51,21.4-27.16,23.89-29.15,1.15-.93,3.52-2.84,35.06,10.69a2.46,2.46,0,0,1,1.34,1.42,2.4,2.4,0,0,1-.16,2c-1.15,2.14-5.31,9.06-10.27,8.06-3.06-.61-15.92-4.35-20.52-5.7l-8.24,11c22.17,2,23.08,2.88,23.76,3.55,1.73,1.74,3.78,8.42,2.63,13.11.81,2.22,2.53,7.95.43,12.56.9,2.93,2.68,10,.22,13.9L669,579a2.41,2.41,0,0,1-2.11,1.41l-8.32.29c-.6,3.93-2.74,11.86-10.24,15A2.89,2.89,0,0,1,647.39,595.86Z"/><path class="cls-3" d="M656.38,580.76a2,2,0,0,1-.76-.13,2.42,2.42,0,0,1-1.55-3c.28-1.26.49-8.14-.65-11a2.43,2.43,0,0,1,4.52-1.79c1.65,4.14,1.31,12.6.76,14.25A2.48,2.48,0,0,1,656.38,580.76ZM670,558.82a2.69,2.69,0,0,1-.4,0c-4.19-.7-23-2.48-23.21-2.49a2.42,2.42,0,0,1,.46-4.82c.77.08,19.19,1.81,23.54,2.54a2.42,2.42,0,0,1-.39,4.8Zm-.36-12.21a2.71,2.71,0,0,1-.4,0c-4.19-.69-24.11-2.83-24.3-2.86a2.42,2.42,0,1,1,.51-4.82c.83.08,20.26,2.17,24.6,2.89a2.43,2.43,0,0,1-.41,4.83Z"/><path class="cls-3" d="M657.45,571.77a2.42,2.42,0,0,1-.16-4.84l5-.36a2.43,2.43,0,1,1,.34,4.84l-5,.36Z"/><rect class="cls-17" x="726.18" y="396.39" width="10.79" height="29.66" transform="translate(-98.41 287.01) rotate(-20.83)"/><path class="cls-3" d="M724.37,400.69l8.82,23.19,5.55-2.11-8.82-23.18Zm7.42,28.75a2.26,2.26,0,0,1-1-.21,2.41,2.41,0,0,1-1.28-1.36L719,400.14a2.44,2.44,0,0,1,1.41-3.14l10.08-3.83a2.44,2.44,0,0,1,3.14,1.4l10.55,27.72a2.44,2.44,0,0,1-1.41,3.14l-10.08,3.83A2.26,2.26,0,0,1,731.79,429.44Z"/><path class="cls-16" d="M611,718.39S562.47,737,552,743.47l1.62,12.95,7.28-2.43s47.74-22.65,58.25-26.7S611,718.39,611,718.39Z"/><path class="cls-3" d="M554.56,744.77l1.05,8.41,4.34-1.44c3.33-1.58,48-22.75,58.28-26.71a9.45,9.45,0,0,0,1.26-.58c-1.31-1-4.82-2.51-8.35-3.5C605.27,723.2,566.16,738.36,554.56,744.77Zm-1,14.08a2.4,2.4,0,0,1-1.29-.38,2.45,2.45,0,0,1-1.12-1.74l-1.62-13a2.42,2.42,0,0,1,1.14-2.36c10.58-6.52,57.47-24.51,59.46-25.28a2.52,2.52,0,0,1,1.49-.08c5.86,1.53,12.89,4.21,13.12,8.3.13,2.19-1.49,3.95-4.77,5.21-10.31,4-57.61,26.41-58.07,26.64a1.62,1.62,0,0,1-.28.11l-7.28,2.43A4.17,4.17,0,0,1,553.57,758.85Z"/><path class="cls-4" d="M861.81,610.24l-28.31,6.48-32.36,81.71-128.93,3.93-7,13.87,8.09,14.56s89.8,17,120.54,17.8c0,0,34.79,4.85,46.93-10.52S874,681.44,875.57,669.3,861.81,610.24,861.81,610.24Z"/><path class="cls-3" d="M674.88,728.62c10.43,2,90.69,16.8,119,17.54l.27,0c.34,0,33.56,4.48,44.69-9.62,12-15.11,32.77-56.17,34.29-67.58,1.2-9-8.38-41.59-13-55.87l-24.9,5.69L803.4,699.33a2.42,2.42,0,0,1-2.18,1.54l-127.49,3.88L668,716.18Zm131.3,23.15a102.23,102.23,0,0,1-12.52-.74c-30.71-.84-117.13-17.13-120.8-17.83a2.38,2.38,0,0,1-1.67-1.21l-8.09-14.57a2.41,2.41,0,0,1-.05-2.26l7-13.87a2.41,2.41,0,0,1,2.09-1.33l127.34-3.88,31.78-80.22a2.39,2.39,0,0,1,1.71-1.47l28.32-6.48a2.43,2.43,0,0,1,2.85,1.62c.63,1.94,15.51,47.59,13.85,60.14-1.75,13.11-23.71,55.28-35.29,70C834.61,749.8,817.88,751.77,806.18,751.77Z"/><path class="cls-9" d="M835.6,587.49,815.54,650.4s45.84,26.36,58.73,31.35c0,0,15.05-35.1,17.48-74.74,0,0,2.42-38.84-21.85-64.73"/><path class="cls-6" d="M874.27,681.75a1.15,1.15,0,0,0,.07-.15h-.41Z"/><path class="cls-3" d="M808.42,711.37a2.43,2.43,0,0,1-1.61-.6l-6.47-5.66a2.43,2.43,0,0,1,3.21-3.66l6.47,5.67a2.43,2.43,0,0,1,.22,3.43A2.38,2.38,0,0,1,808.42,711.37Z"/><path class="cls-4" d="M685.17,701.66S637.4,675,635.2,675s-30.06,17.6-30.06,17.6l-12.46,43.27s8.8,0,12.46-5.13l-1.47,9.53s8.06,3.67,12.46-3.68l.72,8.06s7.33,2.93,11.74-5.87l.48,9.29a11.35,11.35,0,0,0,9.16-4.86c3.67-5.13,3.77-12.94,3.77-12.94l12.41-3.77s16.7,14.48,32.1,9.35c0,0,4.58-1.26,7-3.69"/><path class="cls-3" d="M629.23,750.48H629a2.41,2.41,0,0,1-2.29-2.3l-.17-3A11,11,0,0,1,616,746.87a2.42,2.42,0,0,1-1.52-2l-.25-2.86c-4.13,2.51-9,1.62-11.53.47a2.44,2.44,0,0,1-1.39-2.57l.55-3.6a24.34,24.34,0,0,1-9.16,2,2.41,2.41,0,0,1-1.94-1,2.45,2.45,0,0,1-.39-2.13l12.46-43.27a2.39,2.39,0,0,1,1-1.37c28.46-18,30.56-18,31.36-18s2.83,0,51.14,27a2.43,2.43,0,1,1-2.36,4.24c-16.86-9.41-44.22-24.45-48.8-26.29-3,1.26-16.1,9.14-28,16.62L596,733c2.54-.5,5.6-1.57,7.15-3.75a2.44,2.44,0,0,1,4.39,1.78l-1.15,7.49A6.76,6.76,0,0,0,614,735.3a2.42,2.42,0,0,1,2.62-1.11,2.45,2.45,0,0,1,1.88,2.15l.56,6.32c1.82.18,5-.32,7.3-5a2.43,2.43,0,0,1,4.6,1l.35,6.66a9,9,0,0,0,4.89-3.51c2.65-3.7,3.3-9.61,3.33-11.57a2.43,2.43,0,0,1,1.72-2.28l12.41-3.77a2.44,2.44,0,0,1,2.3.49c.16.13,15.85,13.51,29.74,8.88,1.23-.34,4.45-1.49,6-3.11a2.43,2.43,0,0,1,3.43,3.43c-2.8,2.8-7.54,4.16-8.08,4.31-14.28,4.77-29.2-5.8-33.28-9l-9.56,2.91c-.26,2.82-1.15,8.37-4.13,12.53A13.63,13.63,0,0,1,629.23,750.48Z"/><path class="cls-3" d="M628.6,741.19a2.37,2.37,0,0,1-.74-.11A2.42,2.42,0,0,1,626.3,738l5.88-18.09a2.49,2.49,0,0,1,1.24-1.44l14.18-6.84a2.42,2.42,0,0,1,2.1,4.37l-13.25,6.39-5.55,17.1A2.38,2.38,0,0,1,628.6,741.19ZM616.14,739a2.8,2.8,0,0,1-.64-.08,2.41,2.41,0,0,1-1.7-3l6.11-22.24a2.37,2.37,0,0,1,.84-1.27l11.25-8.8a2.43,2.43,0,0,1,3,3.84l-10.61,8.3-5.91,21.47A2.42,2.42,0,0,1,616.14,739Zm-11-5.86a2.89,2.89,0,0,1-.65-.08,2.43,2.43,0,0,1-1.7-3l7.33-26.64a2.52,2.52,0,0,1,.88-1.29l10.26-7.82a2.42,2.42,0,0,1,2.94,3.85l-9.59,7.32-7.12,25.85A2.44,2.44,0,0,1,605.14,733.13Z"/><path class="cls-3" d="M874.27,684.17a2.43,2.43,0,0,1-.87-.16c-12.91-5-57.2-30.42-59.08-31.5a2.44,2.44,0,0,1-1.1-2.85l20.07-62.91a2.42,2.42,0,1,1,4.61,1.47l-19.47,61c7.91,4.52,41.29,23.5,54.5,29.29,3.25-8.28,14.35-38.57,16.37-71.69,0-.38,2.06-38.13-21.19-62.91a2.43,2.43,0,1,1,3.54-3.32c24.71,26.36,22.59,64.9,22.49,66.53-2.43,39.6-17.51,75.18-17.67,75.53A2.31,2.31,0,0,1,874.27,684.17Z"/></g></g></g></svg>