<svg xmlns="http://www.w3.org/2000/svg" xmlns:xlink="http://www.w3.org/1999/xlink" viewBox="0 0 387.67 319.93"><defs><style>.cls-1{fill:none;}.cls-2{clip-path:url(#clip-path);}.cls-3{fill:#ffbba3;}.cls-4{fill:#ffe546;}.cls-5{fill:#e8d2a4;}.cls-6{fill:#f05c81;}.cls-7{fill:#00b9de;}.cls-8{fill:#fff;}.cls-9{fill:#31ba6e;}.cls-10{fill:#18a8f1;}</style><clipPath id="clip-path" transform="translate(0 -0.02)"><rect class="cls-1" width="387.71" height="319.95"/></clipPath></defs><title>표지이미지자산 1</title><g id="레이어_2" data-name="레이어 2"><g id="레이어_1-2" data-name="레이어 1"><g class="cls-2"><path class="cls-3" d="M52.14,201.17,41.59,174.52l12.89.29s15.53,3.8,17.87,6.74S77,200.88,77,200.88l7.91,8.79-3.07,8.64-8.35,7.91" transform="translate(0 -0.02)"/><path d="M73.53,227.53a1.32,1.32,0,0,1-.91-2.27l8.12-7.69,2.71-7.6-7.38-8.21a1.31,1.31,0,0,1-.33-.7c-.89-6.2-2.86-16.76-4.41-18.7-1.41-1.76-10.75-4.7-17-6.24l-10.76-.25,9.82,24.81a1.32,1.32,0,0,1-2.45,1L40.38,175a1.31,1.31,0,0,1,.14-1.24,1.29,1.29,0,0,1,1.11-.56l12.89.29a2.4,2.4,0,0,1,.28,0c2.66.65,16.09,4.08,18.59,7.2,2.34,2.93,4.39,16,4.9,19.57l7.65,8.49a1.34,1.34,0,0,1,.26,1.33l-3.08,8.64a1.32,1.32,0,0,1-.33.51l-8.35,7.91A1.35,1.35,0,0,1,73.53,227.53Z" transform="translate(0 -0.02)"/><path class="cls-3" d="M19.92,143.17s5.56-29.88,5.56-31.64,6.45.29,6.45.29L33.09,135Z" transform="translate(0 -0.02)"/><path d="M26.75,112.13c-.44,3.66-3.57,20.64-5,28.34l10-6.21-1.09-21.43A16.58,16.58,0,0,0,26.75,112.13Zm-6.83,32.36a1.38,1.38,0,0,1-.75-.23,1.32,1.32,0,0,1-.55-1.33c2.21-11.84,5.5-30,5.55-31.4a1.88,1.88,0,0,1,.77-1.52c1.41-1,4.79-.26,7.38.57a1.31,1.31,0,0,1,.92,1.18L34.4,134.9a1.31,1.31,0,0,1-.62,1.19l-13.18,8.2A1.23,1.23,0,0,1,19.92,144.49Z" transform="translate(0 -0.02)"/><path d="M74.85,183.3l-14.26,6.12a10.54,10.54,0,0,1-13.85-5.53L2.18,80.14A10.54,10.54,0,0,1,7.71,66.29L22,60.16l39.3,65.53Z" transform="translate(0 -0.02)"/><path d="M21.43,61.83,8.23,67.5A9.23,9.23,0,0,0,3.39,79.62L48,183.38a9.23,9.23,0,0,0,12.11,4.83l13.26-5.7L60,126.18Zm35,129.77a11.86,11.86,0,0,1-10.91-7.18L1,80.66A11.87,11.87,0,0,1,7.19,65.08L21.45,59a1.3,1.3,0,0,1,1.65.53L62.4,125a1.12,1.12,0,0,1,.15.38L76.14,183a1.31,1.31,0,0,1-.77,1.51l-14.26,6.12A11.83,11.83,0,0,1,56.44,191.6Z" transform="translate(0 -0.02)"/><path class="cls-4" d="M109.72,156.84a10.53,10.53,0,0,1-5.52,13.85L69.48,185.61a10.54,10.54,0,0,1-13.85-5.53L11.06,76.32a10.53,10.53,0,0,1,5.52-13.85L51.3,47.56a10.54,10.54,0,0,1,13.85,5.53Z" transform="translate(0 -0.02)"/><path d="M55.47,48a9.23,9.23,0,0,0-3.64.75L17.11,63.69A9.21,9.21,0,0,0,12.28,75.8L56.84,179.56A9.22,9.22,0,0,0,69,184.39l34.72-14.91a9.24,9.24,0,0,0,4.83-12.12L64,53.61a9.16,9.16,0,0,0-5.06-4.93A9.28,9.28,0,0,0,55.47,48Zm9.86,139.77a11.88,11.88,0,0,1-10.92-7.18L9.85,76.84a11.88,11.88,0,0,1,6.22-15.58L50.79,46.35a11.86,11.86,0,0,1,15.58,6.22l44.57,103.76a11.88,11.88,0,0,1-6.22,15.58L70,186.82A11.87,11.87,0,0,1,65.33,187.79Z" transform="translate(0 -0.02)"/><rect class="cls-5" x="35.36" y="63.25" width="49.8" height="106.77" transform="translate(-41.15 33.23) rotate(-23.25)"/><path d="M18,78.11l41.1,95.68,43.33-18.61L61.37,59.49Zm40.41,98.73a1.34,1.34,0,0,1-.49-.1,1.35,1.35,0,0,1-.73-.7L15.1,77.94a1.31,1.31,0,0,1,.69-1.73L61.55,56.56a1.32,1.32,0,0,1,1.73.69l42.14,98.11a1.31,1.31,0,0,1-.7,1.73L59,176.73A1.39,1.39,0,0,1,58.45,176.84Z" transform="translate(0 -0.02)"/><rect class="cls-6" x="52.01" y="144.19" width="49.8" height="22.41" transform="translate(-55.09 42.95) rotate(-23.25)"/><path d="M51.33,155.62l7.8,18.18,43.34-18.62L94.66,137Zm7.12,21.22a1.34,1.34,0,0,1-.49-.1,1.35,1.35,0,0,1-.73-.7l-8.84-20.59a1.31,1.31,0,0,1,.7-1.73l45.76-19.65a1.32,1.32,0,0,1,1.73.69l8.84,20.59a1.31,1.31,0,0,1-.7,1.73L59,176.73A1.39,1.39,0,0,1,58.45,176.84Z" transform="translate(0 -0.02)"/><rect class="cls-7" x="16.37" y="67.16" width="49.8" height="10.54" transform="translate(-25.24 22.14) rotate(-23.24)"/><path d="M81.16,157.74l-1.6-2.44,1-.41Zm-5.08-3.2-.23-1.11.64.94Zm-.79,5.72-1.6-2.44.94-.4ZM84.47,151,82,152l-1.34-6.45a.84.84,0,0,0-.58-.45,1.35,1.35,0,0,0-.79.06,1.22,1.22,0,0,0-.63.42.67.67,0,0,0-.11.69L80,152.85l-1.61.69-3.75-5.79a.91.91,0,0,0-.56-.18,1.57,1.57,0,0,0-.69.13,1.46,1.46,0,0,0-.59.44.93.93,0,0,0-.17.71l1.49,6.51-1.61.69-3.75-5.75a.88.88,0,0,0-.74-.3,1.51,1.51,0,0,0-.77.27,1.48,1.48,0,0,0-.51.61.5.5,0,0,0,.07.6l3.75,5.41L68,158a1,1,0,0,0-.53,1.36,1,1,0,0,0,1.35.53l3-1.29,4.45,6.44a.67.67,0,0,0,.55.31,1.66,1.66,0,0,0,.67-.11,1.31,1.31,0,0,0,.49-.39.85.85,0,0,0,.18-.62l-1.61-7.66,1.16-.5,4.45,6.45a.78.78,0,0,0,.55.31,1.28,1.28,0,0,0,.64-.11,1.31,1.31,0,0,0,.5-.38.85.85,0,0,0,.18-.62l-1.59-7.67,2.87-1.23a1,1,0,0,0,.53-1.35A1,1,0,0,0,84.47,151ZM88.29,170a3.8,3.8,0,1,1-5-2A3.81,3.81,0,0,1,88.29,170ZM39.49,60.13a2.34,2.34,0,1,1-3.07-1.23A2.33,2.33,0,0,1,39.49,60.13ZM18,78.11l3.12,7.26L64.49,66.76l-3.12-7.27Zm2.44,10.31a1.34,1.34,0,0,1-1.22-.8L15.1,77.93a1.36,1.36,0,0,1,0-1,1.3,1.3,0,0,1,.7-.72L61.54,56.55a1.32,1.32,0,0,1,1.73.69l4.17,9.7a1.3,1.3,0,0,1-.69,1.73L21,88.32A1.36,1.36,0,0,1,20.48,88.42Z" transform="translate(0 -0.02)"/><path class="cls-8" d="M77.49,104.72c4.27,10-.59,21.59-10.85,26s-22-.08-26.32-10,.59-21.58,10.85-26S73.21,94.78,77.49,104.72Z" transform="translate(0 -0.02)"/><path d="M59.34,94.33a19.42,19.42,0,0,0-7.65,1.58,19.08,19.08,0,0,0-10.18,10.22,17.92,17.92,0,0,0,0,14c4,9.27,15,13.46,24.59,9.34s14.14-15,10.16-24.27A18.33,18.33,0,0,0,59.34,94.33Zm-.87,39.39a20.92,20.92,0,0,1-19.36-12.51,20.46,20.46,0,0,1,0-16.1A21.74,21.74,0,0,1,50.64,93.48c10.92-4.68,23.5.13,28.05,10.73s-.62,23-11.53,27.72A22,22,0,0,1,58.47,133.72Z" transform="translate(0 -0.02)"/><path class="cls-9" d="M50,113.39s-7.39,5.93-5.79,7.72S50,119.74,50,119.74s-4.61,7.23-1,8.68S53.85,125,53.85,125s2,8,4.93,7,2.52-6.33,2.52-6.33,3.17,6.08,6.16,3.42S66,119.2,66,119.2s7.28,3.49,8.34.82-3.62-5.88-3.62-5.88,6.85-.74,6.88-3.24-5.5-3.15-5.5-3.15,5.65-3.54,3.42-6.16-5-3.74-9.39.39S50,113.39,50,113.39Z" transform="translate(0 -0.02)"/><path d="M53.85,123.64a1.33,1.33,0,0,1,1.28,1c.52,2.05,1.84,5.39,3,6,.14.08.2.06.25,0,1.44-.48,1.71-3.56,1.63-5a1.31,1.31,0,0,1,2.48-.69c.67,1.27,2.11,3.17,3.22,3.37a1,1,0,0,0,.9-.32c1.63-1.46-.45-6.14-1.72-8.17A1.32,1.32,0,0,1,66.56,118c1.91.92,5.29,2.06,6.44,1.61.1,0,.11-.06.11-.08.44-1.09-1.55-3.21-3.15-4.31a1.29,1.29,0,0,1-.53-1.4,1.31,1.31,0,0,1,1.14-1c3.13-.34,5.7-1.41,5.7-1.94s-2.14-1.56-4.33-1.83a1.31,1.31,0,0,1-.54-2.42c1.28-.8,3.14-2.43,3.31-3.55a.71.71,0,0,0-.19-.64,4.38,4.38,0,0,0-3-1.87c-1.23-.08-2.77.72-4.51,2.38-4.29,4.06-15.2,10.84-16.28,11.52-2.69,2.17-5.15,4.84-5.43,5.85.59.21,2.39-.53,3.84-1.63a1.32,1.32,0,0,1,1.91,1.76c-1.13,1.77-2.53,4.88-2.09,6.23a.77.77,0,0,0,.5.52,1.6,1.6,0,0,0,1.43,0,4.55,4.55,0,0,0,1.66-2.59,1.33,1.33,0,0,1,1.28-1Zm4.44,9.71a3.12,3.12,0,0,1-1.43-.38c-1.45-.79-2.54-2.81-3.27-4.6a5,5,0,0,1-1.47,1.21,4.25,4.25,0,0,1-3.62.08,3.43,3.43,0,0,1-2-2.17,7.59,7.59,0,0,1,.49-4.71,3.46,3.46,0,0,1-3.74-.79,2.24,2.24,0,0,1-.55-1.73c.22-2.66,5-6.71,6.49-7.89l.13-.1C49.4,112.2,61,105,65.21,101c2.32-2.19,4.42-3.21,6.46-3.09a6.89,6.89,0,0,1,4.85,2.8,3.38,3.38,0,0,1,.79,2.75,6.87,6.87,0,0,1-2.22,3.58c1.85.61,3.84,1.76,3.81,3.85,0,2.29-2.83,3.46-5.23,4,1.37,1.43,2.7,3.49,1.88,5.55a2.74,2.74,0,0,1-1.6,1.56c-1.41.55-3.47.17-5.24-.39,1.09,2.66,1.93,6.3-.38,8.35a3.59,3.59,0,0,1-3.13,1,5.69,5.69,0,0,1-2.9-1.74,5.17,5.17,0,0,1-3.11,4A3.38,3.38,0,0,1,58.29,133.35Z" transform="translate(0 -0.02)"/><path class="cls-6" d="M48.46,94.09s-7.49.43-8.64,5.34-4.57,7.77,1,11.64a162.16,162.16,0,0,0,12.5-14.2S52.38,94,48.46,94.09Z" transform="translate(0 -0.02)"/><path d="M48.51,95.41c-.44,0-6.53.55-7.41,4.31A25.23,25.23,0,0,1,40,103.19c-1.07,2.76-1.62,4.17.77,6.13A160.6,160.6,0,0,0,51.8,96.74,3.89,3.89,0,0,0,48.51,95.41Zm-7.65,17a1.32,1.32,0,0,1-.74-.23c-5.09-3.51-3.84-6.77-2.62-9.91a23.61,23.61,0,0,0,1-3.11c1.36-5.8,9.5-6.34,9.85-6.36h.2c4.71,0,6,3.51,6,3.66a1.33,1.33,0,0,1-.2,1.23A164.76,164.76,0,0,1,41.8,112,1.34,1.34,0,0,1,40.86,112.39Z" transform="translate(0 -0.02)"/><path d="M44.44,97.21s-4.07,2.44-2.69,5.11c0,0-2.21,3.5-.14,4l8-9S46.72,96,44.44,97.21Z" transform="translate(0 -0.02)"/><path class="cls-6" d="M57.35,93.34s-7.49.43-8.64,5.34-4.57,7.78,1,11.64a162.88,162.88,0,0,0,12.49-14.2S61.28,93.29,57.35,93.34Z" transform="translate(0 -0.02)"/><path d="M57.4,94.66c-.44,0-6.53.56-7.41,4.32a23,23,0,0,1-1.14,3.46c-1.07,2.77-1.62,4.17.77,6.13A159.81,159.81,0,0,0,60.69,96,3.91,3.91,0,0,0,57.4,94.66Zm-7.64,17a1.35,1.35,0,0,1-.75-.23c-5.1-3.5-3.83-6.76-2.62-9.91a25.19,25.19,0,0,0,1-3.11c1.35-5.8,9.5-6.34,9.84-6.36h.2c4.71,0,6,3.51,6,3.66a1.35,1.35,0,0,1-.19,1.23A164.92,164.92,0,0,1,50.7,111.26,1.38,1.38,0,0,1,49.76,111.64Z" transform="translate(0 -0.02)"/><path d="M53.33,96.46s-4.07,2.45-2.69,5.11c0,0-2.21,3.51-.14,4l8-9S55.61,95.25,53.33,96.46Z" transform="translate(0 -0.02)"/><path class="cls-6" d="M57.64,102.77s-7.49.43-8.64,5.34-4.57,7.77,1,11.64a162.88,162.88,0,0,0,12.49-14.2S61.57,102.71,57.64,102.77Z" transform="translate(0 -0.02)"/><path d="M57.69,104.09c-.44,0-6.53.56-7.41,4.32a23,23,0,0,1-1.14,3.46c-1.07,2.77-1.62,4.17.77,6.13A159.81,159.81,0,0,0,61,105.43,3.92,3.92,0,0,0,57.69,104.09Zm-7.63,17a1.35,1.35,0,0,1-.75-.23c-5.09-3.51-3.83-6.77-2.62-9.91a25.19,25.19,0,0,0,1-3.11c1.35-5.8,9.5-6.34,9.84-6.36h.2c4.7,0,6,3.51,6,3.66a1.35,1.35,0,0,1-.19,1.23A164.92,164.92,0,0,1,51,120.69,1.35,1.35,0,0,1,50.06,121.07Z" transform="translate(0 -0.02)"/><path d="M53.63,105.89s-4.07,2.45-2.69,5.11c0,0-2.21,3.51-.14,4l8-9S55.91,104.69,53.63,105.89Z" transform="translate(0 -0.02)"/><path class="cls-6" d="M66.87,101.2s-7.49.42-8.64,5.33-4.56,7.78,1,11.65A162.16,162.16,0,0,0,71.77,104S70.79,101.15,66.87,101.2Z" transform="translate(0 -0.02)"/><path d="M66.92,102.52c-.44,0-6.53.55-7.41,4.31a25.69,25.69,0,0,1-1.14,3.47c-1.07,2.76-1.62,4.17.77,6.13a160.6,160.6,0,0,0,11.07-12.58A3.86,3.86,0,0,0,66.92,102.52Zm-7.65,17a1.34,1.34,0,0,1-.74-.23c-5.09-3.51-3.83-6.77-2.62-9.91a23.28,23.28,0,0,0,1-3.12c1.35-5.8,9.5-6.33,9.84-6.35H67c4.7,0,6,3.51,6,3.66a1.35,1.35,0,0,1-.19,1.23A164.92,164.92,0,0,1,60.2,119.12,1.34,1.34,0,0,1,59.27,119.5Z" transform="translate(0 -0.02)"/><path d="M62.85,104.32s-4.07,2.44-2.69,5.11c0,0-2.21,3.5-.14,4l8-9S65.13,103.12,62.85,104.32Z" transform="translate(0 -0.02)"/><path class="cls-3" d="M69.71,225.19l-8.2-8.49s-19.92-10.55-23.43-13.77-17-26.37-18.46-30.47.29-31.35.29-31.35L42.18,129.4s.88,6.74-.88,8.79-12.3,7-12.3,7l-.59,6.15L51.85,142s2.63,5.86,0,8.2S36,157.52,36,157.52l-.88,8.79L39,160.75l19.92-3.52s2,6.74-1.17,8.5S46,169,46,169l-2.06,7.61s11.42,2.93,15.23,8.79,7,16.41,7,16.41" transform="translate(0 -0.02)"/><path d="M69.71,226.51a1.33,1.33,0,0,1-.95-.41l-8.05-8.35c-2.17-1.14-20.08-10.69-23.53-13.86-3.69-3.38-17.22-26.56-18.8-31-1.52-4.24,0-29.05.22-31.87a1.28,1.28,0,0,1,.7-1.08l22.26-11.72a1.32,1.32,0,0,1,1.92,1c.16,1.22.85,7.45-1.18,9.82-1.68,1.95-9.32,5.72-12.07,7l-.31,3.26,21.43-8.57a1.3,1.3,0,0,1,1.68.69c.31.69,2.94,6.82-.32,9.72-2.45,2.18-12.42,6.11-15.47,7.28L37,161.31l.9-1.31a1.32,1.32,0,0,1,.86-.55l19.92-3.52a1.32,1.32,0,0,1,1.49.91c.24.8,2.25,7.83-1.8,10-2.79,1.52-9,2.79-11.29,3.22l-1.49,5.55c3.2,1,11.43,3.91,14.73,9,3.86,6,7,16.3,7.18,16.74a1.32,1.32,0,1,1-2.52.77c0-.11-3.21-10.44-6.87-16.08-3.48-5.35-14.34-8.19-14.46-8.22a1.28,1.28,0,0,1-.8-.62,1.31,1.31,0,0,1-.14-1l2-7.62a1.31,1.31,0,0,1,1.05-1c2.3-.4,8.82-1.73,11.31-3.09,1.43-.78,1.24-3.77.82-5.82l-18.16,3.2L36.24,167a1.31,1.31,0,0,1-1.54.49,1.32,1.32,0,0,1-.86-1.37l.88-8.79a1.33,1.33,0,0,1,.84-1.1C39.17,154.91,49,151,51,149.2c1.21-1.08.68-3.75.12-5.49L28.9,152.58a1.34,1.34,0,0,1-1.28-.16,1.32,1.32,0,0,1-.52-1.18l.59-6.15a1.31,1.31,0,0,1,.75-1.07c4-1.88,10.72-5.36,11.86-6.69.72-.85.86-3.53.74-5.85L21.18,141.93c-.69,10.86-1.3,27.32-.32,30.08,1.39,3.89,14.77,26.88,18.11,29.93,2.78,2.55,17.66,10.66,23.16,13.58a1.15,1.15,0,0,1,.33.25l8.2,8.49a1.32,1.32,0,0,1,0,1.87A1.31,1.31,0,0,1,69.71,226.51Z" transform="translate(0 -0.02)"/><line class="cls-8" x1="28.41" y1="151.35" x2="27.53" y2="166.59"/><path d="M27.53,167.93h-.08a1.32,1.32,0,0,1-1.24-1.39l.88-15.23a1.32,1.32,0,0,1,2.63.15l-.88,15.23A1.31,1.31,0,0,1,27.53,167.93Z" transform="translate(0 -0.02)"/><line class="cls-8" x1="35.15" y1="166.29" x2="32.8" y2="174.5"/><path d="M32.8,175.84a1.13,1.13,0,0,1-.36-.06,1.31,1.31,0,0,1-.9-1.62l2.35-8.2a1.31,1.31,0,0,1,1.62-.91,1.32,1.32,0,0,1,.91,1.63l-2.34,8.2A1.33,1.33,0,0,1,32.8,175.84Z" transform="translate(0 -0.02)"/><path class="cls-10" d="M190.41,208.2c-3.52,19.33-24.61,54.19-24.61,54.19-9.38,15.82-32.23,19.34-47.45,10.55s-52.14-47.45-52.14-47.45c9.37-3.52,17.57-24.61,17.57-24.61s43.94,28.12,44.53,25.2,19.33-60.35,24.61-82.61,14.65-28.12,14.65-28.12a97.65,97.65,0,0,1,28.12-15.23" transform="translate(0 -0.02)"/><path d="M136.83,279a38.58,38.58,0,0,1-19.14-4.91c-15.22-8.78-50.93-46.1-52.44-47.68a1.32,1.32,0,0,1,.49-2.14C74.46,221,82.47,200.6,82.55,200.4a1.32,1.32,0,0,1,1.94-.64c17.91,11.47,38.22,23.66,42.77,25.07.58-2,2-6.65,4.53-14.62,6.06-19.32,16.19-51.66,19.83-67.05,5.14-21.68,14.12-28.19,15.15-28.87a98,98,0,0,1,28.49-15.42,1.31,1.31,0,0,1,1.67.82,1.33,1.33,0,0,1-.82,1.67,97,97,0,0,0-27.71,15l-.15.1c-.08.06-9,6-14.06,27.31-3.66,15.48-13.82,47.87-19.89,67.23-2.54,8.11-4.54,14.5-4.71,15.33a1.52,1.52,0,0,1-.92,1.12c-1,.41-2.4,1-24.46-12.31-8.4-5.08-16.66-10.31-19.81-12.3-2,4.63-8.34,18.58-16,23C75,232.7,105.68,264.11,119,271.8c14,8.06,36.46,5.46,45.67-10.08.22-.36,21-34.89,24.43-53.76a1.32,1.32,0,0,1,2.6.47c-3.52,19.35-23.91,53.21-24.78,54.63C160.45,274,148.52,279,136.83,279Z" transform="translate(0 -0.02)"/><path class="cls-10" d="M170.82,181.62C178,207,186,232.8,185.71,236c-.59,5.86-21.68,46.29-10,76.17l74.4,6.44L386.08,311s4.69-56.83-22.26-90.81c0,0-21.68-90.8-35.15-108.38S288.84,75.5,251.93,80.19L184,103" transform="translate(0 -0.02)"/><path d="M250.16,320h-.11l-74.41-6.45a1.3,1.3,0,0,1-1.11-.83c-9.45-24.1,1.91-54.63,7.38-69.31a52.47,52.47,0,0,0,2.49-7.46c.21-2-4.29-17.45-8.63-32.35-2-7-4.14-14.23-6.22-21.56a1.32,1.32,0,0,1,2.54-.72c2.08,7.33,4.18,14.55,6.22,21.54,5.9,20.24,9,30.92,8.72,33.35-.14,1.4-1.13,4.07-2.64,8.12-5.29,14.21-16.24,43.62-7.69,66.67l73.48,6.36,134.66-7.55c.45-8.18,2.17-58.19-22.06-88.74a1.22,1.22,0,0,1-.25-.51c-.22-.9-21.77-90.73-34.91-107.89-6.67-8.7-31.8-36.61-75.41-31.14l-67.83,22.8a1.32,1.32,0,1,1-.85-2.49l68-22.85a2.27,2.27,0,0,1,.25-.06c45.09-5.72,71.07,23.16,78,32.15C342.94,128.3,363.45,213,365,219.62c26.76,34,22.41,90.94,22.36,91.51a1.31,1.31,0,0,1-1.24,1.21L250.22,320Z" transform="translate(0 -0.02)"/><path d="M286.48,154.16a1.32,1.32,0,0,1-1.28-1l-3.52-16.41a1.32,1.32,0,0,1,2.58-.55l3.51,16.41a1.31,1.31,0,0,1-1,1.56A.9.9,0,0,1,286.48,154.16Z" transform="translate(0 -0.02)"/><path class="cls-3" d="M187.51,197.83,169.79,179l-13.23-33.62s-17.81-12.25-23.32-12.95c-2-.25-42.31-1.75-42.31-1.75s.23,7.71,6.47,9.23,29.86,3.36,29.86,3.36L118.15,162l5,4.07-1.58,3.6,4.48,4.87-1.78,3.3s6.79,7.19,8.68,8.88l4.08-3.18s3.23,6.3,7.16,8.25,11.85,2.88,11.85,2.88l17.43,19.09Z" transform="translate(0 -0.02)"/><path d="M137.09,182.21a1.27,1.27,0,0,1,.28,0,1.33,1.33,0,0,1,.89.69c0,.06,3.08,5.93,6.58,7.67,3.68,1.83,11.34,2.75,11.42,2.76a1.24,1.24,0,0,1,.81.42l16.44,18,12.22-13.91-16.9-18a1.54,1.54,0,0,1-.26-.42l-13.08-33.25c-5.14-3.51-18.24-12-22.41-12.5-1.34-.17-24.49-1.08-40.66-1.68.37,2,1.56,5.67,5.29,6.58,6.07,1.49,29.42,3.3,29.66,3.32a1.34,1.34,0,0,1,1,.66,1.31,1.31,0,0,1,0,1.23l-8.65,17.8L124,165a1.31,1.31,0,0,1,.38,1.55l-1.23,2.82,3.89,4.24a1.3,1.3,0,0,1,.19,1.51L126,177.62c1.5,1.58,5.2,5.47,7.15,7.36l3.19-2.47A1.16,1.16,0,0,1,137.09,182.21Zm36.43,32.85a1.29,1.29,0,0,1-1-.43l-17.09-18.72c-1.84-.24-8.24-1.19-11.79-3-3.11-1.54-5.73-5.37-7-7.45l-2.87,2.24a1.33,1.33,0,0,1-1.69-.05c-1.91-1.7-8.49-8.66-8.77-8.95a1.33,1.33,0,0,1-.2-1.53l1.34-2.48-3.84-4.18a1.31,1.31,0,0,1-.24-1.41l1.17-2.68L117.33,163a1.33,1.33,0,0,1-.36-1.6l8.26-17c-5.8-.48-22.87-1.93-28.15-3.24-7.13-1.74-7.46-10.12-7.47-10.47a1.33,1.33,0,0,1,.39-1,1.27,1.27,0,0,1,1-.37c4.14.15,40.49,1.51,42.44,1.75,5.67.72,22.05,11.9,23.9,13.18a1.28,1.28,0,0,1,.48.6l13.13,33.39L188.47,197a1.32,1.32,0,0,1,0,1.78l-14,15.91a1.33,1.33,0,0,1-1,.45S173.53,215.06,173.52,215.06Z" transform="translate(0 -0.02)"/><path d="M139.56,188.2a1.3,1.3,0,0,1-1.07-.55c-5.41-7.63-5.53-13.77-5.53-14a1.31,1.31,0,0,1,1.31-1.33,1.29,1.29,0,0,1,1.33,1.3c0,.06.15,5.63,5,12.54a1.31,1.31,0,0,1-.32,1.83A1.34,1.34,0,0,1,139.56,188.2Zm-13-13a1.29,1.29,0,0,1-.65-.17,1.31,1.31,0,0,1-.5-1.79c0-.08,4.51-8,6.49-11.61a1.32,1.32,0,1,1,2.31,1.28c-2,3.61-6.45,11.54-6.5,11.62A1.31,1.31,0,0,1,126.57,175.15Zm-3.39-8.08a1.29,1.29,0,0,1-.7-.2,1.33,1.33,0,0,1-.42-1.82c.06-.1,6.48-10.41,7.81-12.7a1.32,1.32,0,0,1,2.28,1.33c-1.35,2.33-7.58,12.35-7.85,12.77A1.32,1.32,0,0,1,123.18,167.07Z" transform="translate(0 -0.02)"/><path d="M132.21,181.56a1.28,1.28,0,0,1-.74-.24,1.33,1.33,0,0,1-.34-1.84l2.36-3.41a1.32,1.32,0,0,1,2.17,1.51L133.3,181A1.3,1.3,0,0,1,132.21,181.56Z" transform="translate(0 -0.02)"/><path class="cls-3" d="M173.27,109.78s3.51,14.94,14.5,19.77,53.17,7,67.23-16.26S272.13,79.9,272.13,79.9s-11.42-1.39-21.53.22-68.54,12.52-68.54,12.52Z" transform="translate(0 -0.02)"/><path d="M174.67,109.93c.68,2.47,4.43,14.36,13.63,18.41C199,133,240.37,135,253.86,112.61c10.77-17.84,15.08-28,16.46-31.57a86.3,86.3,0,0,0-19.52.38c-9.4,1.5-61.49,11.2-67.87,12.4ZM209,134c-9.43,0-17.58-1.44-21.72-3.27-11.45-5-15.1-20-15.25-20.67a1.3,1.3,0,0,1,.11-.91L180.88,92a1.32,1.32,0,0,1,.93-.69c.59-.11,58.57-10.93,68.58-12.53,10.18-1.62,21.43-.28,21.9-.23a1.3,1.3,0,0,1,.95.59,1.33,1.33,0,0,1,.16,1.1c-.13.42-3.29,10.53-17.27,33.69C246.81,129.38,225.84,134,209,134Z" transform="translate(0 -0.02)"/><path class="cls-3" d="M196.56,121.2s-1.76-12.74-2.64-15.38S223.8,90.88,223.8,90.88l21.09-13s9.82,13,11.13,15.23" transform="translate(0 -0.02)"/><path d="M196.55,122.52a1.31,1.31,0,0,1-1.3-1.13c-.49-3.52-1.89-13.08-2.59-15.15-.48-1.45.76-2.72,4.92-5,2.47-1.37,6-3.07,10.41-5.07,7-3.16,14.25-6.07,15.21-6.45l21-13a1.31,1.31,0,0,1,1.74.32c.41.54,9.87,13.12,11.21,15.34a1.32,1.32,0,1,1-2.26,1.37c-.95-1.58-6.8-9.47-10.33-14.16L224.49,92a1.24,1.24,0,0,1-.2.1c-13,5.2-27,11.62-29,13.74.93,3.4,2.5,14.68,2.57,15.19a1.32,1.32,0,0,1-1.13,1.48Z" transform="translate(0 -0.02)"/><path class="cls-3" d="M255.44,63.79A53.9,53.9,0,1,1,201.54,9.9,53.91,53.91,0,0,1,255.44,63.79Z" transform="translate(0 -0.02)"/><path d="M201.53,11.2a52.58,52.58,0,1,0,52.58,52.58A52.64,52.64,0,0,0,201.53,11.2Zm0,107.8a55.21,55.21,0,1,1,55.21-55.21A55.27,55.27,0,0,1,201.53,119Z" transform="translate(0 -0.02)"/><path class="cls-3" d="M242.83,52.53a14.07,14.07,0,1,1,5.73,19.73" transform="translate(0 -0.02)"/><path d="M254.92,75.1A15.33,15.33,0,0,1,248,73.44a1.32,1.32,0,0,1,1.19-2.36A12.75,12.75,0,1,0,244,53.2a1.32,1.32,0,1,1-2.27-1.35A15.37,15.37,0,1,1,254.92,75.1Z" transform="translate(0 -0.02)"/><path d="M230.83,12.67c-.88-1.32-27.68-13.62-40-11s-43.93,26.8-43.93,26.8,5.71,7.47,22,5.71,44.81-11.42,44.81-11.42l-.88,7s15.38-3.52,22.41-11C235.22,18.82,231.71,14,230.83,12.67Z" transform="translate(0 -0.02)"/><path d="M148.92,28.62c2.16,1.81,8.13,5.53,19.81,4.27,15.94-1.72,44.26-11.26,44.54-11.36A1.32,1.32,0,0,1,215,22.94l-.64,5.1c4-1.12,13.68-4.22,19.13-9.36-1-1.42-3-4.11-3.69-5.17-2.26-1.8-27.2-13-38.68-10.53C180.58,5.24,154.81,24.21,148.92,28.62Zm15.14,7.17c-13.08,0-18-6.2-18.21-6.5a1.33,1.33,0,0,1,.26-1.85c1.3-1,32-24.37,44.46-27s40,9.46,41.36,11.54c.85,1.29,4.32,6.07,4.36,6.11a1.33,1.33,0,0,1-.11,1.68C229,27.4,213.75,31,213.1,31.09a1.29,1.29,0,0,1-1.17-.31,1.33,1.33,0,0,1-.43-1.14l.63-5C205.32,26.92,182.94,34,169,35.51A46.52,46.52,0,0,1,164.06,35.79Z" transform="translate(0 -0.02)"/><path d="M226.44,17.07s.87,22,6.59,26.36a67.73,67.73,0,0,0,11.42,7s3.52-5.71,12.74-5.27c0,0-3.51-19.78-6.59-24.61S237.86,7,225.12,11.35Z" transform="translate(0 -0.02)"/><path d="M226.67,12.24l1.05,4.53a2,2,0,0,1,0,.24c.24,5.94,1.8,22.08,6.08,25.37a67.39,67.39,0,0,0,10.24,6.42c1.43-1.64,5-4.77,11.54-4.95-1.19-6.3-3.91-19.09-6.12-22.57C247.1,17.54,238.47,8.88,226.67,12.24Zm17.78,39.54a1.23,1.23,0,0,1-.55-.13,68.36,68.36,0,0,1-11.68-7.17c-5.93-4.57-7-24.4-7.1-27.24l-1.29-5.59a1.32,1.32,0,0,1,.85-1.54c12.52-4.32,23,3.47,27,9.76,3.18,5,6.64,24.26,6.78,25.08a1.33,1.33,0,0,1-.31,1.1,1.38,1.38,0,0,1-1.06.45c-8.36-.4-11.53,4.59-11.55,4.65A1.3,1.3,0,0,1,244.45,51.78Z" transform="translate(0 -0.02)"/><path d="M186.41,79.51A32.26,32.26,0,0,1,174,77.15a1.34,1.34,0,0,1-.73-1.52c1.3-5.16,3-15.61,3.06-15.71a1.32,1.32,0,1,1,2.6.43c-.07.41-1.55,9.33-2.83,14.8a31.3,31.3,0,0,0,12,1.69,1.31,1.31,0,0,1,1.39,1.24,1.33,1.33,0,0,1-1.25,1.39C187.64,79.49,187,79.51,186.41,79.51Z" transform="translate(0 -0.02)"/><path d="M169.53,65.4a3.74,3.74,0,1,1-5.6-3.24,3.73,3.73,0,0,1,5.6,3.24Z" transform="translate(0 -0.02)"/><path d="M199,60.57a3.73,3.73,0,1,1-1.86-3.24A3.74,3.74,0,0,1,199,60.57Z" transform="translate(0 -0.02)"/><path class="cls-10" d="M292.92,141.12s-41.59,82-45.1,86.12c0,0-66.2-42.18-74.41-48,0,0-10.55,22.26-12.89,31.05,0,0,63.27,58,87.88,65.62s36.9-6.44,44.52-17,40.43-75,43.35-82" transform="translate(0 -0.02)"/><path d="M261.51,279.31A45.61,45.61,0,0,1,248,277.12c-24.61-7.62-85.79-63.52-88.38-65.9a1.33,1.33,0,0,1-.39-1.31c2.35-8.8,12.54-30.36,13-31.27a1.33,1.33,0,0,1,.86-.71,1.3,1.3,0,0,1,1.1.2c7.52,5.36,64.72,41.86,73.28,47.32,5.24-8.36,33.34-63.32,44.3-84.92a1.32,1.32,0,1,1,2.35,1.19c-1.7,3.36-41.71,82.21-45.28,86.38a1.31,1.31,0,0,1-1.71.26c-2.59-1.65-61.13-39-73.17-47.18-2.26,4.85-9.67,21-11.93,28.65,6.51,5.91,64,57.73,86.78,64.78,22.44,6.94,34.36-4.45,43.07-16.5,7.54-10.45,40.33-74.86,43.2-81.76a1.32,1.32,0,0,1,1.72-.71,1.31,1.31,0,0,1,.71,1.72c-2.89,6.95-35.89,71.76-43.5,82.29C289.41,266,279.79,279.31,261.51,279.31Z" transform="translate(0 -0.02)"/><path d="M202.71,90a1.38,1.38,0,0,1-.68-.18c-6-3.63-13.85-1.63-13.93-1.62a1.31,1.31,0,0,1-1.61-.94,1.33,1.33,0,0,1,.95-1.61c.36-.09,9-2.29,15.94,1.9a1.31,1.31,0,0,1,.45,1.81A1.28,1.28,0,0,1,202.71,90ZM186.89,53.54a1.33,1.33,0,0,1-.32-2.61l3.17-.79,5-5A1.32,1.32,0,0,1,196.62,47l-5.27,5.27a1.23,1.23,0,0,1-.62.34l-3.51.88A.8.8,0,0,1,186.89,53.54Zm74.62,225.77A45.61,45.61,0,0,1,248,277.12c-24.61-7.62-85.79-63.52-88.38-65.9a1.33,1.33,0,0,1-.39-1.31c2.35-8.8,12.54-30.36,13-31.27a1.33,1.33,0,0,1,.86-.71,1.3,1.3,0,0,1,1.1.2c7.52,5.36,64.72,41.86,73.28,47.32,5.24-8.36,33.34-63.32,44.3-84.92a1.32,1.32,0,1,1,2.35,1.19c-1.7,3.36-41.71,82.21-45.28,86.38a1.31,1.31,0,0,1-1.71.26c-2.59-1.65-61.13-39-73.17-47.18-2.26,4.85-9.67,21-11.93,28.65,6.51,5.91,64,57.73,86.78,64.78,22.44,6.94,34.36-4.45,43.07-16.5,7.54-10.45,40.33-74.86,43.2-81.76a1.32,1.32,0,0,1,1.72-.71,1.31,1.31,0,0,1,.71,1.72c-2.89,6.95-35.89,71.76-43.5,82.29C289.41,266,279.79,279.31,261.51,279.31Z" transform="translate(0 -0.02)"/><path class="cls-8" d="M223.15,47.82v8a3.85,3.85,0,1,1-7.7,0v-8" transform="translate(0 -0.02)"/><path d="M219.3,61a5.17,5.17,0,0,1-5.17-5.16v-8a1.32,1.32,0,0,1,2.64,0v8a2.53,2.53,0,1,0,5.06,0v-8a1.32,1.32,0,0,1,2.64,0v8A5.17,5.17,0,0,1,219.3,61Z" transform="translate(0 -0.02)"/><path d="M16,183.59a1.31,1.31,0,0,1-1.22-.82L13,178.37a1.32,1.32,0,0,1,2.45-1l1.76,4.39a1.33,1.33,0,0,1-.74,1.72A1.44,1.44,0,0,1,16,183.59Zm-5.72-17.13a1.33,1.33,0,0,1-1.31-1.17l-.44-3.95a1.32,1.32,0,1,1,2.63-.29l.43,3.95a1.32,1.32,0,0,1-1.16,1.46ZM8.94,155H8.82a1.32,1.32,0,0,1-1.2-1.43l.44-5.27a1.3,1.3,0,0,1,1.42-1.2,1.31,1.31,0,0,1,1.21,1.42l-.44,5.27A1.32,1.32,0,0,1,8.94,155Zm2.63-16.25a1.35,1.35,0,0,1-.47-.09,1.33,1.33,0,0,1-.76-1.71l2.2-5.71a1.32,1.32,0,0,1,2.46.95l-2.2,5.71A1.33,1.33,0,0,1,11.57,138.78Zm136.65-7a1.28,1.28,0,0,1-.76-.25l-3.08-2.2a1.32,1.32,0,0,1,1.53-2.14l3.08,2.2a1.31,1.31,0,0,1,.31,1.83A1.36,1.36,0,0,1,148.22,131.75ZM135,123.84a.93.93,0,0,1-.32,0l-5.28-1.31a1.32,1.32,0,0,1-.95-1.6,1.3,1.3,0,0,1,1.6-1l5.27,1.32a1.32,1.32,0,0,1-.32,2.6Zm-11-2.2h-5.28a1.32,1.32,0,0,1,0-2.64h5.28a1.32,1.32,0,0,1,0,2.64ZM104.72,123a1.32,1.32,0,0,1-.12-2.63l4.83-.44a1.32,1.32,0,1,1,.24,2.63l-4.83.44Zm44.38-25a1.29,1.29,0,0,1-1.06-.54l-3.52-4.83a1.33,1.33,0,0,1,.29-1.85,1.31,1.31,0,0,1,1.84.29l3.52,4.83a1.32,1.32,0,0,1-1.07,2.1ZM140.75,83a1.32,1.32,0,0,1-1.31-1.09l-.87-5.28a1.32,1.32,0,0,1,2.6-.44l.88,5.28A1.33,1.33,0,0,1,141,83Zm-2.19-19.33a.62.62,0,0,1-.19,0,1.3,1.3,0,0,1-1.11-1.49l.88-6.15a1.32,1.32,0,0,1,1.49-1.12,1.33,1.33,0,0,1,1.12,1.5l-.88,6.15A1.34,1.34,0,0,1,138.56,63.64Zm3.51-16.7a1.27,1.27,0,0,1-.54-.11,1.31,1.31,0,0,1-.65-1.75l2.19-4.83a1.33,1.33,0,0,1,1.75-.66,1.31,1.31,0,0,1,.65,1.75l-2.19,4.83A1.35,1.35,0,0,1,142.07,46.94ZM168,54.85a1.29,1.29,0,0,1-.33,0l-5.27-1.32a1.32,1.32,0,0,1,.64-2.56l5.27,1.32a1.32,1.32,0,0,1,1,1.6A1.3,1.3,0,0,1,168,54.85Z" transform="translate(0 -0.02)"/></g></g></g></svg>