<svg xmlns="http://www.w3.org/2000/svg" viewBox="0 0 574.8 71.97"><title>logo자산 2</title><g id="레이어_2" data-name="레이어 2"><g id="레이어_1-2" data-name="레이어 1"><path d="M0,70.86V0H6.19V27.85h.56a24.34,24.34,0,0,1,3-4.89,15.91,15.91,0,0,1,5.15-4.24A17,17,0,0,1,23,17a19.62,19.62,0,0,1,11.5,3.44,22.78,22.78,0,0,1,7.7,9.62A34.81,34.81,0,0,1,45,44.43,35.43,35.43,0,0,1,42.2,58.87a22.66,22.66,0,0,1-7.67,9.66A19.47,19.47,0,0,1,23.08,72,17,17,0,0,1,15,70.24,16.08,16.08,0,0,1,9.79,66a24.1,24.1,0,0,1-3-5H6v9.86ZM6.09,44.32A31.74,31.74,0,0,0,8,55.71a17.53,17.53,0,0,0,5.54,7.8,13.9,13.9,0,0,0,8.79,2.82,13.92,13.92,0,0,0,9-2.92,18.1,18.1,0,0,0,5.57-7.91,31.1,31.1,0,0,0,1.9-11.18,30.49,30.49,0,0,0-1.88-11,17.79,17.79,0,0,0-5.56-7.81,14.1,14.1,0,0,0-9-2.89,14.09,14.09,0,0,0-8.83,2.79A17.17,17.17,0,0,0,8,33.06,31.16,31.16,0,0,0,6.09,44.32Z"/><path d="M80,72a23.37,23.37,0,0,1-12.88-3.48,22.85,22.85,0,0,1-8.39-9.65,32.62,32.62,0,0,1-3-14.24,33,33,0,0,1,3-14.29,23.85,23.85,0,0,1,8.2-9.77A21.11,21.11,0,0,1,79,17,22.38,22.38,0,0,1,90,19.81a21.32,21.32,0,0,1,8.35,8.6q3.23,5.77,3.22,14.67v3H61.94q.21,9.21,5,14.71t13,5.5a15.54,15.54,0,0,0,9.27-2.58,14.57,14.57,0,0,0,5.12-6.14l5.85,1.9a18.39,18.39,0,0,1-7,8.74Q88,72,80,72ZM62,40.69H95.22a20.29,20.29,0,0,0-2-9.22A16.45,16.45,0,0,0,87.46,25a16.09,16.09,0,0,0-17,.07,17.9,17.9,0,0,0-5.94,6.58A22.2,22.2,0,0,0,62,40.69Z"/><path d="M113.08,0h18.48l19.51,47.61h.83L171.42,0h18.47V70.86H175.36V24.74h-.59L156.43,70.52h-9.89L128.2,24.57h-.59V70.86H113.08Z"/><path d="M226.16,71.9a28.19,28.19,0,0,1-14.09-3.34,22.5,22.5,0,0,1-9.1-9.48,31.23,31.23,0,0,1-3.18-14.55A31.1,31.1,0,0,1,203,30.14a23.54,23.54,0,0,1,9-9.66A26.14,26.14,0,0,1,225.57,17a26.87,26.87,0,0,1,12.68,3,21.76,21.76,0,0,1,9,9q3.32,6,3.32,15v4.05H214.36v0q0,5.94,3.25,9.37a11.53,11.53,0,0,0,8.79,3.43,12.57,12.57,0,0,0,6.4-1.56,8.48,8.48,0,0,0,3.81-4.6l13.63.9a18.68,18.68,0,0,1-7.89,11.83Q236,71.91,226.16,71.9Zm-11.8-33h22.31a10.81,10.81,0,0,0-3-7.82A10.42,10.42,0,0,0,225.81,28a10.85,10.85,0,0,0-8.06,3.18A11.48,11.48,0,0,0,214.36,38.93Z"/><path d="M275.33,71.87a19.69,19.69,0,0,1-12.63-4q-5-4-5-11.87,0-6,2.8-9.34a16.18,16.18,0,0,1,7.35-5,42,42,0,0,1,9.81-2.06,74.38,74.38,0,0,0,9.9-1.45c2-.51,3-1.61,3-3.32v-.21a6.41,6.41,0,0,0-2.06-5.09,8.65,8.65,0,0,0-5.83-1.79,10.43,10.43,0,0,0-6.34,1.73,8.13,8.13,0,0,0-3.11,4.39L259.55,32.8a18.15,18.15,0,0,1,7.56-11.52q6-4.26,15.59-4.26a32.4,32.4,0,0,1,11.07,1.87,18.49,18.49,0,0,1,8.32,5.83A16,16,0,0,1,305.26,35V70.86h-14V63.49h-.42a15.3,15.3,0,0,1-5.79,6A18.54,18.54,0,0,1,275.33,71.87Zm4.22-10.18a11.37,11.37,0,0,0,8-2.82,9.07,9.07,0,0,0,3.11-7V46.23a8.71,8.71,0,0,1-2.68,1c-1.21.3-2.51.56-3.88.77l-3.68.58a14.52,14.52,0,0,0-6.25,2.18,5.38,5.38,0,0,0-2.37,4.74,5.27,5.27,0,0,0,2.2,4.6A9.42,9.42,0,0,0,279.55,61.69Z"/><path d="M331.45,0V70.86H316.71V0Z"/><path d="M343.49,0H362l19.51,47.61h.83L401.83,0H420.3V70.86H405.77V24.74h-.59L386.84,70.52H377L358.61,24.57H358V70.86H343.49Z"/><path d="M447.5,71.87a19.73,19.73,0,0,1-12.63-4q-5-4-5-11.87,0-6,2.81-9.34a16.18,16.18,0,0,1,7.35-5,41.82,41.82,0,0,1,9.81-2.06,74.93,74.93,0,0,0,9.9-1.45c2-.51,3-1.61,3-3.32v-.21a6.41,6.41,0,0,0-2.06-5.09,8.61,8.61,0,0,0-5.83-1.79,10.42,10.42,0,0,0-6.33,1.73,8,8,0,0,0-3.11,4.39L431.72,32.8a18.23,18.23,0,0,1,7.56-11.52q6-4.26,15.59-4.26a32.32,32.32,0,0,1,11.07,1.87,18.47,18.47,0,0,1,8.33,5.83q3.17,4,3.16,10.3V70.86h-14V63.49H463a15.33,15.33,0,0,1-5.8,6A18.51,18.51,0,0,1,447.5,71.87Zm4.22-10.18a11.35,11.35,0,0,0,8-2.82,9,9,0,0,0,3.12-7V46.23a8.68,8.68,0,0,1-2.69,1c-1.21.3-2.5.56-3.87.77l-3.69.58a14.52,14.52,0,0,0-6.24,2.18,5.38,5.38,0,0,0-2.37,4.74,5.28,5.28,0,0,0,2.19,4.6A9.44,9.44,0,0,0,451.72,61.69Z"/><path d="M517.15,17.72V28.79h-10V54.53c0,2,.47,3.41,1.39,4.12a5.73,5.73,0,0,0,3.6,1.07,11.15,11.15,0,0,0,2.07-.19l1.59-.29,2.32,11c-.74.23-1.77.5-3.11.81a26.3,26.3,0,0,1-4.88.57q-8,.34-12.89-3.48c-3.24-2.54-4.85-6.43-4.83-11.64V28.79h-7.26V17.72h7.26V5h14.74V17.72Z"/><path d="M550.41,71.9a28.19,28.19,0,0,1-14.09-3.34,22.5,22.5,0,0,1-9.1-9.48A31.23,31.23,0,0,1,524,44.53a31.1,31.1,0,0,1,3.18-14.39,23.54,23.54,0,0,1,9-9.66A26.14,26.14,0,0,1,549.82,17a26.87,26.87,0,0,1,12.68,3,21.76,21.76,0,0,1,9,9q3.32,6,3.32,15v4.05H538.61v0q0,5.94,3.25,9.37a11.53,11.53,0,0,0,8.79,3.43,12.57,12.57,0,0,0,6.4-1.56,8.48,8.48,0,0,0,3.81-4.6l13.63.9a18.68,18.68,0,0,1-7.89,11.83Q560.27,71.91,550.41,71.9Zm-11.8-33h22.32a10.86,10.86,0,0,0-3-7.82A10.42,10.42,0,0,0,550.06,28,10.85,10.85,0,0,0,542,31.21,11.48,11.48,0,0,0,538.61,38.93Z"/></g></g></svg>